<?xml version="1.0" encoding="UTF-8" ?>
<!DOCTYPE svg PUBLIC "-//W3C//DTD SVG 1.1//EN" "http://www.w3.org/Graphics/SVG/1.1/DTD/svg11.dtd">
<svg width="225pt" height="225pt" viewBox="0 0 225 225" version="1.1" xmlns="http://www.w3.org/2000/svg">
<g id="#ffffffff">
</g>
<g id="#000000ff">
<path fill="#ffffffff" opacity="1.00" d=" M 105.87 10.80 C 110.07 8.11 115.70 8.38 119.78 11.17 C 146.62 27.57 173.58 43.79 199.86 61.09 C 205.10 64.82 210.86 68.05 215.26 72.82 C 217.34 75.10 214.32 77.25 212.92 78.89 C 200.89 90.45 188.01 101.08 175.63 112.26 C 175.73 101.91 175.52 91.55 175.74 81.19 C 158.63 72.20 139.12 68.71 119.97 67.58 C 101.11 66.73 82.01 69.02 64.05 74.92 C 59.00 76.71 53.86 78.40 49.26 81.19 C 49.48 91.57 49.29 101.95 49.36 112.33 C 41.91 105.83 34.64 99.12 27.08 92.74 C 27.12 108.71 27.09 124.68 27.10 140.64 C 30.66 143.09 32.15 147.46 31.05 151.62 C 34.68 154.96 37.01 160.20 35.59 165.12 C 33.90 171.74 29.88 177.49 25.83 182.88 C 24.59 184.83 22.11 184.34 20.20 184.06 C 15.80 178.64 11.75 172.67 9.62 165.97 C 7.81 160.84 10.02 155.13 13.95 151.63 C 12.89 147.50 14.24 143.04 17.92 140.71 C 17.91 121.97 17.86 103.24 17.94 84.50 C 14.84 81.48 11.22 78.80 8.98 75.03 C 8.98 72.68 11.24 71.17 12.82 69.74 C 23.86 61.27 35.85 54.13 47.54 46.61 C 66.89 34.52 86.37 22.63 105.87 10.80 M 18.01 160.94 C 18.00 165.08 20.57 168.68 22.49 172.20 C 24.44 168.69 27.00 165.08 26.99 160.93 C 26.19 156.31 18.77 156.32 18.01 160.94 Z" />
<path fill="#ffffffff" opacity="1.00" d=" M 58.62 86.69 C 80.09 77.69 103.88 75.32 126.94 77.21 C 140.43 78.58 153.86 81.44 166.37 86.75 C 166.32 94.39 166.37 102.03 166.35 109.67 C 131.11 101.29 93.89 101.29 58.66 109.66 C 58.62 102.01 58.68 94.35 58.62 86.69 Z" />
<path fill="#ffffffff" opacity="1.00" d=" M 40.18 118.27 C 44.76 112.99 52.17 112.11 58.37 109.75 C 58.34 113.84 58.35 117.94 58.36 122.03 C 54.40 121.19 49.10 120.50 46.58 124.53 C 43.31 130.36 44.87 138.81 50.48 142.69 C 52.40 144.13 54.97 143.72 57.12 144.55 C 63.90 161.48 71.35 178.67 83.71 192.37 C 90.99 200.32 100.81 207.10 111.99 207.01 C 121.85 207.36 131.05 202.31 137.98 195.63 C 130.92 178.26 136.93 156.99 151.45 145.34 C 159.31 138.57 169.61 135.37 179.85 134.84 C 180.07 130.80 180.50 125.88 177.05 122.98 C 174.09 120.50 170.07 121.49 166.64 122.03 C 166.65 117.94 166.65 113.84 166.63 109.74 C 171.43 111.41 176.44 112.63 180.96 115.02 C 188.00 119.09 189.96 128.36 188.55 135.84 C 196.07 137.46 203.24 140.76 209.09 145.79 C 218.86 153.96 224.52 166.39 225.00 179.05 L 225.00 181.59 C 224.34 195.16 217.54 208.39 206.42 216.31 C 198.99 221.89 189.79 224.65 180.57 225.00 L 179.40 225.00 C 164.35 224.82 149.99 216.58 141.98 203.90 C 132.38 212.44 119.10 217.78 106.18 215.38 C 94.17 213.61 83.86 206.02 76.11 197.01 C 64.71 184.07 57.26 168.29 50.76 152.47 C 36.82 148.54 31.53 129.40 40.18 118.27 M 172.54 144.67 C 160.39 147.17 149.89 156.30 145.89 168.06 C 141.95 179.27 143.99 192.39 151.22 201.83 C 159.97 213.70 176.42 218.95 190.46 214.50 C 202.31 211.03 211.97 201.04 214.91 189.03 C 218.72 175.04 212.99 159.12 201.14 150.78 C 193.04 144.75 182.38 142.69 172.54 144.67 Z" />
<path fill="#ffffffff" opacity="1.00" d=" M 175.62 157.62 C 178.54 157.65 181.46 157.65 184.38 157.62 C 184.33 163.63 184.36 169.64 184.35 175.65 C 190.36 175.63 196.37 175.67 202.38 175.62 C 202.34 178.54 202.34 181.46 202.38 184.38 C 196.37 184.33 190.36 184.37 184.35 184.35 C 184.37 190.36 184.33 196.37 184.38 202.38 C 181.46 202.34 178.54 202.34 175.62 202.38 C 175.67 196.37 175.63 190.36 175.65 184.35 C 169.64 184.36 163.63 184.33 157.62 184.38 C 157.65 181.46 157.65 178.54 157.62 175.62 C 163.63 175.67 169.64 175.63 175.65 175.65 C 175.63 169.64 175.67 163.63 175.62 157.62 Z" />
</g>
</svg>
