<svg width="2868" height="2852" viewBox="0 0 2868 2852" fill="none" xmlns="http://www.w3.org/2000/svg">
<path d="M2707.38 1924.39C2503.77 2155.43 2163.92 2132.65 2164.67 2241.56C2165.51 2361.82 2579.83 2382.1 2587.56 2495.29C2598.04 2648.67 1860.08 2943.66 1089.67 2822.87C824.249 2781.26 572.952 2741.06 356.165 2545.2C-114.306 2120.15 -91.4231 1233.45 268.074 684.189C310.7 619.062 669.653 86.9819 1243.2 12.0069C1257.23 10.1739 1267.69 9.12894 1276.86 8.15894C1365.59 -1.23506 1915.41 -50.8151 2363.73 324.789C2504.16 442.437 2588.59 563.462 2626.95 623.445C2871.73 1006.22 2979.9 1615.16 2707.38 1924.39Z" fill="#F4F7FA"/>
<mask id="mask0_10_10" style="mask-type:luminance" maskUnits="userSpaceOnUse" x="1672" y="35" width="527" height="1252">
<path d="M1867.66 1286.88L2067.42 1255.63C2067.42 1255.63 2088.99 1147.28 2028.72 1082.62C1905.76 950.697 2029.88 852.208 2075.7 803.18C2144.79 729.241 2173.43 633.951 2051.63 613.474C1929.82 592.997 2018.09 395.379 2146.89 292.051C2272.92 190.938 2165.91 -91.4552 1873.02 102.345C1698.11 218.082 1758.88 413.222 1766.13 519.062C1773.39 624.901 1619.44 657.838 1692.55 777.081C1755 878.937 1853.69 944.89 1799.58 1030.1C1745.47 1115.31 1751.8 1200.36 1867.66 1286.88Z" fill="white"/>
</mask>
<g mask="url(#mask0_10_10)">
<path d="M1867.66 1286.88L2067.42 1255.63C2067.42 1255.63 2088.99 1147.28 2028.72 1082.62C1905.76 950.697 2029.88 852.208 2075.7 803.18C2144.79 729.241 2167.03 644.197 2064.27 607.365C1947.99 565.692 2018.09 395.379 2146.89 292.051C2272.92 190.938 2165.91 -91.4552 1873.02 102.345C1698.11 218.082 1758.87 413.222 1766.13 519.062C1773.39 624.901 1619.44 657.838 1692.55 777.081C1755 878.937 1853.69 944.89 1799.58 1030.1C1745.47 1115.31 1751.8 1200.36 1867.66 1286.88Z" fill="url(#paint0_linear_10_10)"/>
</g>
<mask id="mask1_10_10" style="mask-type:luminance" maskUnits="userSpaceOnUse" x="1672" y="35" width="527" height="1252">
<path d="M1867.66 1286.88L2067.42 1255.63C2067.42 1255.63 2088.99 1147.28 2028.72 1082.62C1905.76 950.697 2029.88 852.208 2075.7 803.18C2144.79 729.241 2173.43 633.951 2051.63 613.474C1929.82 592.997 2018.09 395.379 2146.89 292.051C2272.92 190.938 2165.91 -91.4552 1873.02 102.345C1698.11 218.082 1758.88 413.222 1766.13 519.062C1773.39 624.901 1619.44 657.838 1692.55 777.081C1755 878.937 1853.69 944.89 1799.58 1030.1C1745.47 1115.31 1751.8 1200.36 1867.66 1286.88Z" fill="white"/>
</mask>
<g mask="url(#mask1_10_10)">
<g opacity="0.5">
<path d="M1957.02 1291.9L1961.05 1290.49C1960.17 1287.99 1873.68 1037.84 1862.71 763.993C1852.61 511.71 1906.4 187.115 2220.07 73.4227L2218.61 69.4097C2078.98 120.019 1978.36 215.9 1919.53 354.389C1872.53 465.018 1851.98 602.915 1858.45 764.25C1869.46 1038.72 1956.14 1289.4 1957.02 1291.9Z" fill="#BEB8F2"/>
<path d="M1897.44 413.321L1901.55 412.143C1862.41 275.574 1884.52 69.4217 1884.75 67.3557L1880.51 66.8857C1880.28 68.9627 1858.08 275.951 1897.44 413.321Z" fill="#BEB8F2"/>
<path d="M1939.17 322.121C2067.29 211.464 2206.57 233.151 2207.96 233.384L2208.66 229.175C2207.25 228.937 2066.07 206.878 1936.38 318.891L1939.17 322.121Z" fill="#BEB8F2"/>
<path d="M1879.64 942.631C1895.68 736.431 2158.47 645.361 2161.1 644.688L2160.32 640.496C2157.67 640.912 1891.57 734.269 1875.38 942.3L1879.64 942.631Z" fill="#BEB8F2"/>
<path d="M1865.16 858.587L1869.15 857.081C1822.63 733.577 1670.41 667.403 1668.87 666.749L1667.2 670.674C1668.71 671.321 1819.28 736.805 1865.16 858.587Z" fill="#BEB8F2"/>
<path d="M1948.3 1250.82C1942.27 1172.49 2043.17 1093.92 2044.19 1093.14L2041.59 1089.76C2037.35 1093.01 1937.84 1170.5 1944.05 1251.15L1948.3 1250.82Z" fill="#BEB8F2"/>
<path d="M1927.02 1191.86L1931.07 1190.5C1911.28 1131.61 1809.28 1078.53 1775.76 1061.08C1771.03 1058.61 1766.94 1056.49 1766.28 1055.96L1763.57 1059.26C1764.48 1060.01 1767.2 1061.43 1773.79 1064.87C1806.93 1082.12 1907.78 1134.61 1927.02 1191.86Z" fill="#BEB8F2"/>
</g>
</g>
<path d="M1990.84 1258.65C2011.72 1325.15 1975.88 1384.28 1943.82 1423.05C1937.48 1422.26 1933.57 1423.54 1926.97 1424.26C1867.37 1430.8 1841.21 1420.12 1781.93 1416.73C1769.17 1416 1732.84 1401.69 1718.39 1394.81L1691.67 1381.52C1691.67 1381.52 1661.88 1222.5 1745.38 1190.52C1828.88 1158.54 1818.77 1002.82 1823.01 919.164C1825.61 867.793 1842.24 844.445 1846.04 825.596C1886.26 626.068 1838.35 559.945 1888.56 501.822C1943.99 437.658 2018.24 499.874 2081.86 433.301C2153.7 358.127 2107.25 228.324 2189.5 172.651C2203.6 163.106 2218.32 153.695 2239.98 149.626C2293.47 139.582 2330.39 176.37 2373.43 135.606C2459.95 53.6689 2585.27 36.5479 2645.15 140.255C2704.24 242.609 2593.6 416.645 2359.11 537.577C2200.72 643.39 2193.66 680.32 2193.05 772.416C2192.63 836.923 2231.66 1010.19 2136.89 1065.01C2042.12 1119.84 1966.97 1182.63 1990.84 1258.65Z" fill="url(#paint1_linear_10_10)"/>
<mask id="mask2_10_10" style="mask-type:luminance" maskUnits="userSpaceOnUse" x="1688" y="68" width="973" height="1402">
<path d="M1899.64 1469.51L1695.66 1387.68C1695.66 1387.68 1661.88 1222.5 1745.38 1190.52C1828.88 1158.53 1818.77 1002.82 1823.01 919.164C1834.51 692.185 2074.64 744.208 2112.73 453.713C2122.86 376.45 2116.34 225.718 2189.5 172.651C2272.85 112.193 2318.08 188.03 2373.43 135.606C2459.95 53.6689 2585.27 36.5479 2645.15 140.255C2704.24 242.609 2593.6 416.645 2359.12 537.578C2200.72 643.391 2193.66 680.321 2193.05 772.416C2192.63 836.923 2231.66 1010.19 2136.89 1065.01C2042.13 1119.84 1966.98 1182.63 1990.84 1258.65C2027.16 1374.32 1899.64 1469.51 1899.64 1469.51Z" fill="white"/>
</mask>
<g mask="url(#mask2_10_10)">
<g opacity="0.5">
<path d="M1812.2 1423.07L1807.98 1421.98C1814.49 1396.85 1821.37 1371.58 1828.42 1346.89C1880.63 1164.03 1948.02 992.668 2028.72 837.553C2097.1 706.121 2175.98 584.489 2263.15 476.036C2333.25 388.819 2409.08 309.613 2488.53 240.618C2544.38 192.117 2601.42 149.123 2658.09 112.837C2667.96 106.511 2678.41 100.595 2688.52 94.8728C2701.98 87.2498 2715.91 79.3679 2728.57 70.4539L2731.08 74.0179C2718.24 83.0539 2704.22 90.9899 2690.67 98.6659C2680.61 104.359 2670.21 110.246 2660.44 116.507C2603.95 152.68 2547.07 195.544 2491.38 243.909C2412.13 312.732 2336.49 391.751 2266.54 478.767C2179.55 586.996 2100.83 708.386 2032.58 839.565C1952.02 994.417 1884.74 1165.51 1832.61 1348.08C1825.56 1372.74 1818.7 1397.97 1812.2 1423.07Z" fill="#FCFDFE"/>
<path d="M2165.96 615.08L2162.28 612.737C2262.91 455.099 2234.11 135.915 2233.81 132.71L2238.15 132.299C2238.45 135.52 2267.39 456.18 2165.96 615.08Z" fill="#FCFDFE"/>
<path d="M1923.12 1080.73L1919.2 1078.83C1975.05 963.7 2212.48 900.12 2214.87 899.491L2215.98 903.707C2213.61 904.331 1978.1 967.4 1923.12 1080.73Z" fill="#FCFDFE"/>
<path d="M1897.08 1148.8L1892.89 1147.62C1915.48 1067.2 1903.32 945.46 1858.65 804.828C1856.41 797.756 1856.41 797.756 1856.62 796.957L1860.83 798.084L1858.73 797.52L1860.88 797.255C1860.97 797.743 1861.82 800.413 1862.81 803.508C1907.73 944.944 1919.9 1067.57 1897.08 1148.8Z" fill="#FCFDFE"/>
<path d="M1824.73 1377.38L1821.05 1375.05C1870.24 1297.3 2005.81 1281.73 2007.17 1281.58L2007.64 1285.92C2006.3 1286.06 1872.79 1301.41 1824.73 1377.38Z" fill="#FCFDFE"/>
<path d="M1805.62 1422.56C1798.68 1348.69 1770.3 1274.41 1718.86 1195.45L1722.52 1193.08C1774.35 1272.64 1802.95 1347.57 1809.96 1422.15L1805.62 1422.56Z" fill="#FCFDFE"/>
<path d="M2445.26 285.311L2441.73 282.766C2502.56 198.24 2546.87 95.3379 2561.43 61.5229C2564.96 53.3369 2566.21 50.4599 2566.82 49.5339L2570.46 51.9299C2570 52.6439 2567.98 57.3229 2565.43 63.2479C2550.83 97.1689 2506.37 200.398 2445.26 285.311Z" fill="#FCFDFE"/>
<path d="M2326.02 408.115L2323.4 404.641C2401.25 345.69 2594.63 373.071 2602.82 374.264L2602.2 378.576C2600.21 378.287 2402.43 350.265 2326.02 408.115Z" fill="#FCFDFE"/>
</g>
</g>
<path d="M2098.17 1442.57C2097.22 1443.11 2096.26 1443.64 2095.3 1444.17C2038.64 1475.51 1971.17 1499.75 1890.57 1510.89C1874.71 1511.95 1858.84 1513.01 1842.98 1514.07C1825.95 1477.87 1816.23 1440.4 1862.88 1420.95C1935.34 1390.76 1923.4 1259.02 1898.02 1214.63C1866.62 1159.68 1796.13 1030.24 1907.41 981.801C2000.05 941.474 2068.07 934.385 2061.88 810.327C2055.69 686.268 2114.97 602.266 2227.61 597.903C2346.15 593.312 2426.3 426.504 2528.23 468.835C2705.84 542.595 2582.01 830.361 2385.86 930.49C2189.71 1030.62 2314.65 1092.01 2330.73 1192.38C2352.67 1329.41 2163.27 1319.45 2119.72 1378.74C2104.96 1398.82 2099.09 1421.02 2098.17 1442.57Z" fill="url(#paint2_linear_10_10)"/>
<mask id="mask3_10_10" style="mask-type:luminance" maskUnits="userSpaceOnUse" x="1831" y="461" width="783" height="1082">
<path d="M2111.54 1517.96L1854.81 1542.77C1836.34 1507.87 1810.77 1442.67 1862.88 1420.95C1935.34 1390.76 1923.4 1259.02 1898.02 1214.63C1866.62 1159.68 1796.13 1030.24 1907.41 981.801C2000.05 941.474 2068.07 934.385 2061.88 810.327C2055.69 686.269 2114.98 602.266 2227.61 597.903C2346.15 593.312 2426.3 426.504 2528.23 468.835C2705.84 542.594 2582.01 830.36 2385.86 930.489C2189.71 1030.62 2314.65 1092 2330.73 1192.38C2352.67 1329.41 2163.27 1319.45 2119.72 1378.74C2085.57 1425.22 2098.85 1483.04 2111.54 1517.96Z" fill="white"/>
</mask>
<g mask="url(#mask3_10_10)">
<g opacity="0.5">
<path d="M1986.76 1489.25L1981.19 1488.71C2021.19 1082.05 2258.35 696.797 2600.13 483.288L2603.09 488.029C2262.75 700.638 2026.59 1084.29 1986.76 1489.25Z" fill="#FCFDFE"/>
<path d="M2027.55 1269.41L2021.99 1269.97C2005.84 1110.2 1856.48 999.488 1854.97 998.388L1858.26 993.873C1859.79 994.986 2011.15 1107.12 2027.55 1269.41Z" fill="#FCFDFE"/>
<path d="M1996.16 1414.65L1990.99 1412.5C2053.5 1262.17 2345.77 1212.24 2348.72 1211.76L2349.63 1217.27C2346.71 1217.75 2057.47 1267.17 1996.16 1414.65Z" fill="#FCFDFE"/>
<path d="M2190.07 903.354L2184.74 901.659C2223.96 778.604 2128.68 604.983 2127.72 603.244L2132.6 600.526C2133.58 602.286 2230.01 778.026 2190.07 903.354Z" fill="#FCFDFE"/>
<path d="M2348.48 697.802L2345.09 693.358C2462.08 604.08 2659.56 626.905 2661.55 627.148L2660.87 632.697C2658.91 632.455 2463.65 609.914 2348.48 697.802Z" fill="#FCFDFE"/>
</g>
</g>
<path d="M1928.96 2479.26C1928.96 2526.64 1877.65 2545.64 1834.33 2547.78L207.157 2650.08C159.165 2652.45 120.018 2613.66 120.018 2563.61V310.663C120.018 260.611 159.165 220.773 207.157 221.855L1853.52 278.113C1896.84 279.09 1928.96 299.214 1928.96 346.593V2479.26Z" fill="url(#paint3_linear_10_10)"/>
<path d="M1954.29 2479.26C1954.29 2526.64 1919.13 2566.92 1875.81 2569.05L232.483 2650.08C184.491 2652.45 145.344 2613.66 145.344 2563.61V310.663C145.344 260.611 184.491 220.773 232.483 221.855L1875.81 258.899C1919.13 259.876 1954.29 299.214 1954.29 346.594V2479.26Z" fill="#D8DEE8"/>
<path d="M185.965 311.469V2561.71C185.965 2588.48 206.809 2609.17 232.485 2607.94L1527.73 2545.69L1875.81 2528.96C1899.02 2527.84 1917.8 2506.35 1917.8 2480.96V345.868C1917.8 320.475 1899.02 299.49 1875.81 298.995L1515.2 291.316L232.484 264.001C206.808 263.455 185.965 284.706 185.965 311.469Z" fill="url(#paint4_linear_10_10)"/>
<path d="M1894.64 2382.12C1894.64 2391.56 1886.73 2399.6 1877 2400.02L231.174 2472.53C220.416 2473 211.655 2465.3 211.655 2455.36V311.103C211.655 301.165 220.416 293.257 231.174 293.477L1877 327.088C1886.73 327.287 1894.64 335.132 1894.64 344.576V2382.12Z" fill="url(#paint5_linear_10_10)"/>
<path d="M1249.56 2519.64L897.803 2536.12C884.845 2536.73 874.333 2527.05 874.333 2514.5V2502.06C874.333 2489.51 884.845 2478.86 897.803 2478.28L1249.56 2462.41C1262.24 2461.84 1272.51 2471.42 1272.51 2483.82V2496.11C1272.51 2508.51 1262.24 2519.04 1249.56 2519.64Z" fill="#D8DEE8"/>
<path opacity="0.78" d="M1007.25 1187.31L319.94 1191.55V412.838L1007.25 424.477V1187.31Z" fill="white"/>
<path d="M598.558 764.372L548.067 764.041V581.469C529.58 597.806 507.767 609.81 482.614 617.476V573.429C495.856 569.446 510.232 561.769 525.737 550.408C541.227 539.055 551.845 525.723 557.602 510.402L598.559 510.981L598.558 764.372Z" fill="white"/>
<path d="M674.459 700.121L724.392 695.571C725.817 706.447 730.028 715.081 737.03 721.481C744.027 727.878 752.087 731.109 761.211 731.178C771.63 731.257 780.448 727.244 787.663 719.141C794.873 711.043 798.481 698.78 798.481 682.353C798.481 666.952 794.905 655.367 787.753 647.593C780.595 639.817 771.276 635.867 759.789 635.747C745.449 635.597 732.581 641.579 721.186 653.696L680.529 647.626L706.218 516.965L838.144 518.813V563.761L744.145 562.572L736.318 605.161C747.464 599.917 758.84 597.364 770.447 597.499C792.569 597.756 811.298 605.73 826.643 621.404C841.972 637.065 849.634 657.249 849.634 681.964C849.634 702.579 843.447 720.926 831.067 737.01C814.189 759.007 790.736 769.913 760.676 769.719C736.611 769.564 716.967 763.207 701.76 750.636C686.538 738.054 677.434 721.212 674.459 700.121Z" fill="white"/>
<path d="M944.12 879.234L385.472 877.471V827.778L944.12 830.366V879.234Z" fill="white"/>
<path d="M944.12 963.072L385.472 962.724V913.031L944.12 914.204V963.072Z" fill="white"/>
<path d="M836.573 1047.12L385.472 1047.98V998.285L836.573 998.089V1047.12Z" fill="white"/>
<g opacity="0.78">
<path d="M1384.02 1300.17L1211.22 1301.85V1143.73L1384.02 1142.89V1300.17Z" fill="white"/>
<path d="M1596.58 1298.11L1426.04 1299.77V1142.69L1596.58 1141.85V1298.11Z" fill="white"/>
<path d="M1806.4 1296.08L1638.06 1297.71V1141.65L1806.4 1140.83V1296.08Z" fill="white"/>
<path d="M505.145 1522.47L322.895 1525.4V1363L505.145 1360.95V1522.47Z" fill="white"/>
<path d="M729.27 1518.86L549.455 1521.75V1360.45L729.27 1358.43V1518.86Z" fill="white"/>
<path d="M950.418 1515.31L772.99 1518.16V1357.94L950.418 1355.94V1515.31Z" fill="white"/>
<path d="M1168.65 1511.8L993.559 1514.62V1355.45L1168.65 1353.48V1511.8Z" fill="white"/>
<path d="M1384.02 1508.34L1211.22 1511.12V1353L1384.02 1351.06V1508.34Z" fill="white"/>
<path d="M1596.58 1504.92L1426.04 1507.67V1350.59L1596.58 1348.67V1504.92Z" fill="white"/>
<path d="M1806.4 1501.55L1638.06 1504.26V1348.2L1806.4 1346.31V1501.55Z" fill="white"/>
<path d="M505.145 1736.24L322.895 1740.33V1577.94L505.145 1574.72V1736.24Z" fill="white"/>
<path d="M729.27 1731.21L549.455 1735.24V1573.94L729.27 1570.77V1731.21Z" fill="white"/>
<path d="M950.418 1726.24L772.99 1730.23V1570L950.418 1566.87V1726.24Z" fill="white"/>
<path d="M1168.65 1721.34L993.559 1725.27V1566.11L1168.65 1563.02V1721.34Z" fill="white"/>
<path d="M1384.02 1716.51L1211.22 1720.39V1562.27L1384.02 1559.23V1716.51Z" fill="white"/>
<path d="M1596.58 1711.74L1426.04 1715.57V1558.49L1596.58 1555.48V1711.74Z" fill="white"/>
<path d="M1806.4 1707.03L1638.06 1710.81V1554.75L1806.4 1551.78V1707.03Z" fill="white"/>
<path d="M505.145 1950.01L322.895 1955.27V1792.87L505.145 1788.5V1950.01Z" fill="white"/>
<path d="M729.27 1943.55L549.455 1948.73V1787.43L729.27 1783.11V1943.55Z" fill="white"/>
<path d="M950.418 1937.18L772.99 1942.29V1782.07L950.418 1777.81V1937.18Z" fill="white"/>
<path d="M1168.65 1930.89L993.559 1935.93V1776.77L1168.65 1772.57V1930.89Z" fill="white"/>
<path d="M1384.02 1924.68L1211.22 1929.66V1771.54L1384.02 1767.4V1924.68Z" fill="white"/>
<path d="M1596.58 1918.55L1426.04 1923.47V1766.39L1596.58 1762.29V1918.55Z" fill="white"/>
<path d="M1806.4 1912.5L1638.06 1917.36V1761.3L1806.4 1757.26V1912.5Z" fill="white"/>
<path d="M505.145 2163.78L322.895 2170.2V2007.81L505.145 2002.27V2163.78Z" fill="white"/>
<path d="M729.27 2155.89L549.455 2162.22V2000.92L729.27 1995.46V2155.89Z" fill="white"/>
<path d="M950.418 2148.11L772.99 2154.36V1994.13L950.418 1988.74V2148.11Z" fill="white"/>
<path d="M1168.65 2140.43L993.559 2146.59V1987.43L1168.65 1982.11V2140.43Z" fill="white"/>
<path d="M1384.02 2132.85L1211.22 2138.93V1980.81L1384.02 1975.56V2132.85Z" fill="white"/>
<path d="M1596.58 2125.36L1426.04 2131.37V1974.29L1596.58 1969.11V2125.36Z" fill="white"/>
</g>
<path d="M1806.4 634.878L1211.22 628.436V439.602L1806.4 449.469V634.878Z" fill="white"/>
<path opacity="0.78" d="M1806.4 740.854L1211.22 736.369V664.413L1806.4 670.203V740.854Z" fill="white"/>
<path opacity="0.78" d="M1806.4 845.524L1211.22 842.972V771.016L1806.4 774.873V845.524Z" fill="white"/>
<path d="M729.27 1731.21L549.455 1735.24V1573.94L729.27 1570.77V1731.21Z" fill="white"/>
<path d="M2283.19 2507.45C2288 2514.53 2293.86 2525.09 2297.17 2538.88C2298.62 2544.92 2299.32 2550.5 2299.6 2555.38C2296.59 2561.83 2281.35 2584.76 2257.23 2593.68C2242.31 2599.21 2215.23 2590.15 2240.7 2567.93C2266.16 2545.71 2269.7 2540.77 2254.13 2496.91C2250.13 2485.63 2250.29 2481.24 2251.98 2480.13C2255.94 2477.53 2270.96 2493.41 2283.19 2507.45Z" fill="url(#paint6_linear_10_10)"/>
<path d="M2419.24 2521.03C2424.05 2528.11 2429.91 2538.68 2433.22 2552.46C2434.66 2558.5 2435.37 2564.08 2435.65 2568.97C2432.64 2575.41 2417.4 2598.34 2393.28 2607.27C2378.36 2612.79 2351.28 2603.73 2376.74 2581.51C2402.2 2559.29 2405.75 2554.36 2390.18 2510.49C2386.18 2499.21 2386.33 2494.82 2388.03 2493.71C2391.99 2491.11 2407 2506.99 2419.24 2521.03Z" fill="url(#paint7_linear_10_10)"/>
<path d="M2467.74 1576.84C2479.19 1634.19 2490.63 1691.54 2502.07 1748.89C2483.2 1804.15 2465.94 1864.26 2451.79 1929.01C2400.69 2162.94 2408.98 2371.39 2431.68 2529.88C2419.59 2536.59 2407.5 2543.29 2395.4 2550C2358.46 2466.82 2311.99 2342.76 2285.93 2186.7C2255.14 2002.33 2266.81 1856.97 2258.28 1856.75C2250.11 1856.54 2231.78 1989.88 2236.92 2141.26C2242.35 2301.28 2272.31 2432.08 2298.69 2521.57C2283.46 2524.96 2268.22 2528.34 2252.99 2531.73C2191 2417.73 2125.64 2261.29 2097.22 2069.35C2077.48 1936.06 2053.52 1758.9 2136.64 1572.44C2144.94 1553.83 2174.72 1512.11 2180.22 1501.86C2283.4 1517.97 2364.56 1560.73 2467.74 1576.84Z" fill="url(#paint8_linear_10_10)"/>
<path opacity="0.25" d="M2451.79 1929.02C2465.94 1864.26 2483.19 1804.15 2502.07 1748.89C2490.63 1691.54 2479.19 1634.19 2467.74 1576.84C2364.56 1560.73 2283.4 1517.97 2180.22 1501.86C2174.72 1512.1 2144.94 1553.82 2136.64 1572.44C2108.62 1635.3 2092.8 1697.09 2084.85 1756.5C2283.12 1747.55 2341.92 1786.89 2359.03 1824.42C2386.26 1884.16 2311.85 1948.23 2343.11 2069.96C2352.51 2106.57 2365.29 2124.33 2368.3 2170.48C2372.25 2231.06 2352.66 2237.61 2351.67 2299.4C2350.59 2367.01 2373.02 2422.48 2391.43 2468C2402.88 2496.31 2414.59 2518.93 2423.31 2534.52C2426.1 2532.98 2428.89 2531.43 2431.68 2529.88C2408.98 2371.39 2400.69 2162.94 2451.79 1929.02Z" fill="url(#paint9_linear_10_10)"/>
<path d="M2292.37 779.337C2299.58 787.14 2291.35 799.462 2293.76 840.968C2294.86 859.953 2297.64 875.678 2300.08 886.801C2301.49 896.945 2303.04 906.327 2304.7 914.585C2305.92 920.644 2307.04 925.361 2308.45 930.36C2311.05 939.632 2314.36 948.751 2318.26 957.468C2318.52 958.044 2318.29 958.714 2317.75 959.018C2317.72 959.036 2317.69 959.052 2317.65 959.067C2317.04 959.342 2316.33 959.068 2316.05 958.458C2312.1 949.634 2308.75 940.402 2306.11 931.017C2304.69 925.956 2303.56 921.183 2302.33 915.061C2301.45 910.709 2300.61 906.027 2299.8 901.115C2299.8 914.276 2301.01 928.689 2307.63 947.417C2327.72 1004.26 2286.45 1047.32 2250.94 1052.56C2210 1058.6 2178.74 1028.9 2169.02 1019.12C2129.81 979.738 2115.86 910.376 2143.24 855.754C2179.1 784.199 2274.72 760.216 2292.37 779.337Z" fill="url(#paint10_linear_10_10)"/>
<path d="M2194.19 846.238C2195.28 839.539 2200.48 812.146 2223.07 792.969C2265.94 756.586 2342.53 774.28 2388.79 807.102C2437.19 841.446 2421.53 870.298 2469.63 909.018C2521.87 951.074 2552.99 927.119 2623.53 965.662C2651.28 980.822 2726.07 1021.68 2738.5 1096.22C2749.25 1160.62 2710.13 1230.29 2656.63 1261.15C2565.04 1313.98 2436.83 1249.87 2372.79 1185.33C2311.37 1123.43 2346.38 1103.09 2255.48 980.672C2222.62 936.408 2186.09 896.292 2194.19 846.238Z" fill="url(#paint11_linear_10_10)"/>
<path d="M1736.56 1395.53C1744.59 1396.7 1755.8 1390.27 1764.38 1384.28C1770.41 1380.06 1785.58 1376.61 1785.58 1376.61L1772.92 1357.34L1761.19 1358.67C1761.19 1358.67 1740.45 1357.11 1728.26 1358.87C1716.08 1360.63 1708.95 1366.45 1708.53 1379L1736.56 1395.53Z" fill="url(#paint12_linear_10_10)"/>
<path d="M2124.33 1064.32C2062.56 1145.28 2086.79 1188.57 2044.49 1255.42C2002.55 1321.69 1971.93 1239.37 1861.23 1284.98C1819.2 1302.29 1786.92 1322.02 1765.95 1336.22C1766.45 1340.79 1767.16 1345.67 1768.14 1350.84C1768.81 1354.34 1769.9 1359.45 1772.02 1367.08C1774.06 1374.42 1777.49 1385.61 1783.01 1399.86C1815.92 1417.98 1874.37 1442.9 1941.32 1429.38C1953.51 1426.92 1962.01 1424.7 1974.58 1419.56C2016.77 1402.29 2083.04 1392.04 2147.65 1304.04C2196.43 1237.58 2203.69 1232.66 2212.86 1200.99C2235.52 1122.72 2209.46 1028.85 2175.84 1023.26C2158.3 1020.33 2141.44 1041.89 2124.33 1064.32Z" fill="url(#paint13_linear_10_10)"/>
<path d="M2144.57 1042.48C2113.17 1081.63 2108.15 1125.31 2107.36 1144.68C2104.92 1204.93 2133.25 1250.94 2140.04 1263.09C2172.14 1320.5 2174.88 1439.94 2050.51 1710.63C2066.09 1721.1 2124.67 1804.42 2143.65 1759.58C2169.53 1698.46 2271.95 1276.62 2182.47 1773.22C2181.29 1779.76 2195.37 1777.01 2202.08 1778.75C2250.19 1791.24 2307.12 1798.07 2370.23 1790.74C2469.16 1779.24 2541.16 1737.85 2578.83 1712.13C2545.23 1651.85 2508.06 1569.41 2485.2 1467.04C2441.6 1271.76 2473.19 1107.35 2497.81 1017.91C2465.05 999.948 2361.87 948.776 2249.36 980.426C2221.32 988.312 2177.65 1001.25 2144.57 1042.48Z" fill="url(#paint14_linear_10_10)"/>
<path opacity="0.3" d="M2485.21 1467.04C2441.6 1271.76 2473.19 1107.35 2497.81 1017.91C2465.05 999.947 2361.88 948.775 2249.36 980.426C2221.33 988.312 2177.65 1001.25 2144.57 1042.49C2119.57 1073.66 2111.31 1107.65 2108.58 1130.01C2109.42 1129.78 2110.58 1129.47 2111.97 1129.13C2181.51 1112.07 2268.88 1160.39 2302.3 1211.2C2358.08 1296 2258.72 1380.29 2276.11 1522.03C2285.51 1598.65 2328.28 1685.97 2440.79 1776.77C2503.76 1759.05 2550.81 1731.26 2578.83 1712.13C2545.24 1651.85 2508.06 1569.41 2485.21 1467.04Z" fill="url(#paint15_linear_10_10)"/>
<path d="M2268.78 906.556C2260.84 927.999 2255 954.399 2267.84 970.369C2275.66 980.099 2287.43 984.753 2299.01 989.086C2326.4 999.326 2337.94 992.819 2343.9 1000.13C2357.01 1016.24 2331.8 1085.49 2280.13 1096.63C2228.7 1107.72 2175.76 1055.93 2181.11 1031.18C2185.93 1008.85 2237.84 1010.32 2244.17 982.075C2247.35 967.856 2237.33 953.471 2228.86 943.905L2222.79 945.075L2268.78 906.556Z" fill="url(#paint16_linear_10_10)"/>
<path opacity="0.4" d="M2343.9 1000.14C2337.94 992.819 2326.4 999.325 2299.01 989.086C2287.42 984.754 2275.66 980.099 2267.84 970.368C2255 954.398 2260.84 927.999 2268.78 906.556L2222.79 945.076L2228.86 943.907C2235.58 951.499 2243.17 962.137 2244.47 973.309C2248.32 975.422 2251.64 977.836 2254.06 980.261C2248.77 995.682 2247.77 1008.62 2247.73 1016.93C2247.68 1029.89 2247.64 1039.51 2254.06 1047.93C2261.07 1057.11 2271.68 1059.49 2280.95 1061.56C2301.54 1066.18 2319.91 1062.03 2331.82 1057.84C2346.53 1034.98 2351.26 1009.18 2343.9 1000.14Z" fill="url(#paint17_linear_10_10)"/>
<path d="M2255.62 928.485C2255.62 928.485 2253.01 954.748 2227 954.885C2194.96 955.053 2191.4 870.499 2199.2 865.668C2208.23 860.065 2216.14 873.787 2237.17 869.002C2246.02 866.987 2253.68 855.598 2258.17 867.872C2263.27 881.837 2258.96 906.557 2258.96 906.557C2258.96 906.557 2266.57 900.279 2267.74 907.833C2269.27 917.719 2261.85 923.896 2255.62 928.485Z" fill="url(#paint18_linear_10_10)"/>
<path d="M2204.94 836.609C2194.77 846.979 2189.16 867.099 2196.21 877.213C2206.33 891.743 2236.28 876.573 2248.53 894.345C2253.9 902.137 2253.58 912.954 2256.37 912.777C2258.67 912.632 2260.04 905.137 2261.37 898.972C2268.69 864.981 2277.16 861.166 2274.58 851.435C2269.33 831.655 2225.82 815.316 2204.94 836.609Z" fill="url(#paint19_linear_10_10)"/>
<path d="M2790.43 1434.57L2222.06 1663.42C2207.27 1669.38 2190.46 1662.22 2184.51 1647.43L2055.91 1324.49C2049.96 1309.71 2057.12 1292.9 2071.9 1286.95L2640.28 1058.09C2655.06 1052.14 2671.87 1059.3 2677.82 1074.08L2806.42 1397.02C2812.37 1411.81 2805.22 1428.62 2790.43 1434.57Z" fill="#EA645E"/>
<path d="M2801.08 1437.93L2232.71 1666.79C2217.92 1672.74 2201.11 1665.58 2195.16 1650.8L2066.56 1327.85C2060.61 1313.07 2067.77 1296.26 2082.55 1290.31L2650.93 1061.45C2665.71 1055.5 2682.52 1062.66 2688.47 1077.44L2817.07 1400.39C2823.02 1415.17 2815.86 1431.98 2801.08 1437.93Z" fill="url(#paint20_linear_10_10)"/>
<path d="M2314.9 1362.42C2345.73 1362.96 2373.66 1388.75 2377.25 1419.9C2378.26 1428.64 2377.18 1436.87 2374.53 1444.22L2443.11 1475.93C2448.98 1459.29 2451.2 1440.66 2448.93 1420.94C2440.74 1349.78 2377.04 1290.64 2306.44 1289.11C2306.26 1289.11 2306.08 1289.12 2305.9 1289.11L2314.36 1362.44C2314.54 1362.44 2314.71 1362.42 2314.9 1362.42Z" fill="white"/>
<path d="M2374.53 1444.22C2367.72 1463.07 2350.14 1476 2327.97 1475.74C2297.06 1475.39 2268.9 1449.61 2265.28 1418.27C2261.68 1387.12 2283.71 1362.2 2314.36 1362.44L2305.9 1289.11C2235.03 1287.88 2183.81 1345.22 2192.13 1417.21C2200.47 1489.36 2265.42 1548.48 2336.42 1549.01C2387.41 1549.39 2427.78 1519.41 2443.11 1475.93L2374.53 1444.22Z" fill="#FFC244"/>
<path d="M2721.38 1256.13L2484.34 1353.19C2483.22 1353.65 2481.94 1353.1 2481.48 1351.96L2472.34 1329.38C2471.89 1328.24 2472.42 1326.95 2473.55 1326.49L2710.74 1229.78C2711.83 1229.34 2713.08 1229.89 2713.54 1231.01L2722.53 1253.3C2722.99 1254.42 2722.47 1255.69 2721.38 1256.13Z" fill="#4C53A5"/>
<path d="M2701.38 1208.15L2464.35 1305.21C2463.22 1305.66 2461.94 1305.12 2461.48 1303.98L2452.35 1281.39C2451.89 1280.26 2452.43 1278.96 2453.55 1278.51L2690.74 1181.8C2691.84 1181.35 2693.09 1181.9 2693.54 1183.02L2702.54 1205.31C2702.99 1206.43 2702.48 1207.7 2701.38 1208.15Z" fill="#4C53A5"/>
<path d="M2760.37 1355.1L2523.33 1452.16C2522.21 1452.62 2520.92 1452.07 2520.46 1450.93L2511.33 1428.35C2510.87 1427.21 2511.41 1425.92 2512.53 1425.46L2749.72 1328.75C2750.82 1328.31 2752.07 1328.85 2752.52 1329.98L2761.52 1352.26C2761.98 1353.38 2761.46 1354.66 2760.37 1355.1Z" fill="#4C53A5"/>
<path d="M2740.37 1307.12L2503.33 1404.17C2502.21 1404.63 2500.93 1404.08 2500.47 1402.95L2491.34 1380.36C2490.88 1379.23 2491.42 1377.93 2492.54 1377.48L2729.73 1280.77C2730.83 1280.32 2732.08 1280.87 2732.53 1281.99L2741.53 1304.28C2741.98 1305.4 2741.46 1306.67 2740.37 1307.12Z" fill="#4C53A5"/>
<path d="M2481.36 1539.86L2472.34 1549.15C2472.34 1549.15 2453.66 1562.23 2444.54 1572.18C2435.43 1582.14 2433.43 1592.03 2441.79 1602.96C2450.15 1613.9 2464.52 1605.04 2477.05 1597.52C2484.67 1592.94 2489.72 1579.69 2492.83 1568.65C2495.02 1560.88 2505.49 1547.42 2505.49 1547.42L2481.36 1539.86Z" fill="url(#paint21_linear_10_10)"/>
<path d="M2363.94 1047.11C2386.97 998.051 2557.53 1038.03 2682.66 1126.3C2722.37 1154.32 2726.51 1243.17 2712.59 1311.58C2696.34 1391.44 2650.12 1445.06 2626.98 1471.9C2586.2 1519.21 2544.08 1546.44 2517.31 1561.12C2508.67 1558.84 2498.65 1555.46 2487.93 1550.35C2478.11 1545.66 2469.76 1540.5 2462.88 1535.62C2459.8 1504.32 2458.81 1457.06 2473.5 1402.99C2482.82 1368.7 2492.77 1352.53 2512.47 1307.57C2530.39 1266.67 2545.8 1249.46 2556.3 1240.44C2561.23 1236.21 2570.28 1229.16 2572.05 1217.8C2574.39 1202.69 2562.41 1189.26 2558.3 1184.65C2517.66 1139.08 2420.96 1161.95 2378.89 1109.06C2366.54 1093.55 2355.13 1065.89 2363.94 1047.11Z" fill="url(#paint22_linear_10_10)"/>
<path d="M2258.17 867.871C2251.08 875.621 2266.63 901.281 2298.03 952.284C2317.35 983.677 2327.01 999.372 2333.22 1006.16C2366.66 1042.7 2423.08 1070.85 2480.14 1067.67C2519.3 1065.5 2525.03 1050.45 2557.12 1055.8C2605.54 1063.88 2591.45 969.761 2616.43 1020.96C2617.93 1024.01 2606.53 1047.84 2543.74 1004.04C2492.37 968.201 2478.4 979.01 2397.66 929.374C2391.8 925.773 2367.01 910.428 2332.2 893.16C2291.28 872.859 2265.22 860.162 2258.17 867.871Z" fill="url(#paint23_linear_10_10)"/>
<path d="M1679.85 1403.18L1718.37 1361.16L1785.58 1374.96L1728.45 1416.46L1679.85 1403.18Z" fill="url(#paint24_linear_10_10)"/>
<path d="M967.646 1157.7C958.591 1161.13 820.493 1216.04 792.107 1360.18C789.815 1371.82 767.627 1495.66 851.608 1583.14C945.777 1681.24 1127.11 1678.8 1199.08 1596.8C1215.87 1577.67 1224.72 1556.48 1229.68 1538.67L1210.72 1488.28C1187.58 1460.35 1156.07 1453.73 1139.25 1449.58C1097.76 1439.36 1066.44 1457.83 1042.69 1437.83C1029.54 1426.76 1026.93 1410.83 1024.6 1396.61C1016.65 1348.14 1044.01 1318.31 1046 1288.42C1047.49 1266.07 1055.31 1217.12 1026.15 1185.19C1007.68 1164.98 982.101 1159.47 967.646 1157.7Z" fill="url(#paint25_linear_10_10)"/>
<path d="M913.837 2764.03C912.226 2755.16 883.571 2747.13 869.382 2759.01C862.337 2764.91 857.485 2776.88 861.562 2782.28C863.045 2784.24 856.971 2787.7 862.79 2787.77C882.094 2787.99 915.439 2772.85 913.837 2764.03Z" fill="url(#paint26_linear_10_10)"/>
<path d="M883.802 2767.26L854.332 2763.09C867.985 2746.66 865.457 2694.31 865.457 2694.31L896.798 2701.3C896.798 2701.3 893.227 2715.67 887.152 2736.87C885.073 2744.12 884.144 2755.48 883.802 2767.26Z" fill="url(#paint27_linear_10_10)"/>
<path d="M886.416 2763.63C886.416 2763.63 850.935 2755.46 847.097 2762.5C843.259 2769.53 840.279 2788.38 862.79 2787.77C885.301 2787.16 888.415 2769.6 886.416 2763.63Z" fill="url(#paint28_linear_10_10)"/>
<path d="M1318.2 2797.3C1315.36 2788.74 1285.87 2784.8 1273.48 2798.56C1267.33 2805.38 1264.2 2817.91 1268.99 2822.69C1270.74 2824.43 1265.21 2828.7 1270.98 2827.95C1290.12 2825.47 1321.02 2805.81 1318.2 2797.3Z" fill="url(#paint29_linear_10_10)"/>
<path d="M1288.91 2804.71H1259.15C1270.37 2786.52 1260.54 2735.04 1260.54 2735.04L1292.55 2737.58C1292.55 2737.58 1291.03 2752.31 1287.98 2774.14C1286.93 2781.62 1287.6 2792.99 1288.91 2804.71Z" fill="url(#paint30_linear_10_10)"/>
<path d="M1366.05 1679.18C1379.84 1724.71 1399.53 1798.2 1412.2 1890.4C1448.35 2153.37 1371.51 2161.76 1385.86 2453.17C1390.44 2546.19 1305.28 2760.68 1297.77 2765.42C1294.14 2765.77 1290.19 2766.01 1285.99 2765.88C1278.58 2765.65 1268.14 2764.52 1255.99 2760.88C1242.5 2758.55 1193.86 2626.81 1205.14 2548.48C1213.12 2493.04 1210.8 2433.54 1206.18 2314.54C1205.43 2295.26 1156.1 1939.41 1156.1 1939.41C1141.09 2071.13 1123.83 2183.04 1108.87 2269.81C1060.8 2548.59 904.513 2717.33 896.36 2720.03C894.749 2720.68 880.084 2726.01 868.094 2718.1C862.757 2714.59 860.941 2710.05 860.941 2710.05C856.761 2706.77 862.173 2431.72 909.844 2224.72C979.038 1924.26 948.908 1853.95 970.83 1719.75C989.797 1603.62 1366.05 1679.18 1366.05 1679.18Z" fill="url(#paint31_linear_10_10)"/>
<path d="M1086.56 1134.25C1132.5 1132.9 1238.09 1116.68 1296.25 1169.01C1297.26 1169.92 1285.35 1176.29 1291.22 1183.16C1296.66 1189.54 1315.34 1211.88 1332.28 1242.08C1344.55 1263.96 1355.62 1289.45 1366.79 1327.45C1386.49 1394.47 1392.15 1451.53 1394.04 1476.39C1404.67 1616.21 1394.13 1680.72 1384.56 1724.58C1343.02 1745.91 1236 1784.09 1108.47 1765.12C1050.23 1756.46 1003.63 1737.08 970.83 1719.78C1003.92 1619.59 977.96 1565.98 965.712 1516.56C948.247 1446.1 947.966 1451.43 933.586 1395.45C909.86 1303.1 905.967 1208.72 922.27 1189.41C966.227 1137.34 1045.43 1135.46 1086.56 1134.25Z" fill="url(#paint32_linear_10_10)"/>
<path d="M1290.99 2800.75C1290.99 2800.75 1254.72 2797.62 1251.9 2805.12C1249.09 2812.63 1248.78 2831.71 1270.98 2827.95C1293.18 2824.2 1293.81 2806.38 1290.99 2800.75Z" fill="url(#paint33_linear_10_10)"/>
<path d="M1217.04 1083.96C1231.27 1059.9 1223.74 1030.04 1222.31 1024.1C1216.32 999.235 1214.1 995.464 1209.48 990.203L1202.96 983.303C1202.96 983.303 1202.55 983.001 1202.12 982.704C1197.59 979.584 1180.64 974.511 1176.98 974.328C1165.3 973.741 1141.52 1015.64 1127.91 1080.21C1126.8 1082.51 1125.71 1084.84 1124.62 1087.2C1117.87 1101.84 1112.07 1116.25 1107.1 1130.3C1028.14 1136.97 1017.18 1146.24 1016.83 1151.59C1016.09 1162.85 1061.08 1175.86 1094.91 1180.82C1168.71 1191.62 1244.56 1172.16 1244.21 1158.4C1244.06 1152.41 1229.4 1144.6 1166.84 1136.41C1168.3 1126.06 1169.77 1115.71 1171.23 1105.35C1176.32 1104.23 1206.56 1101.69 1217.04 1083.96Z" fill="white"/>
<path d="M1230.69 971.324C1225.37 991.033 1210.46 1009.62 1204.82 1011.75C1204.09 1012.02 1199.93 1013.82 1195.59 1017.65C1195 1018.17 1194.44 1018.81 1193.85 1019.68C1186.21 1030.96 1202.08 1050.85 1196.78 1055.4C1192.94 1058.7 1180.94 1049.72 1178.42 1052.78C1176.04 1055.66 1185.39 1065.43 1182.63 1068.91C1180.55 1071.53 1174.4 1066.99 1168.86 1070.38C1166.1 1072.06 1166.25 1074.03 1162.12 1080.34C1159.78 1083.91 1156.83 1087.71 1154.79 1089.72C1144.89 1099.48 1124.45 1098.56 1121.97 1092.94C1121.28 1091.37 1122.46 1090.52 1122.56 1085.91C1122.56 1085.91 1122.65 1081.63 1121.09 1076.24C1118.87 1068.54 1110.49 1061.22 1102.63 1051.62C1088.07 1033.84 1086.12 1021.48 1085.65 1017.35C1085.48 1015.88 1085.42 1014.79 1085.38 1014C1084.57 998.216 1090.25 976.853 1100.28 965.462C1117.1 946.379 1139.02 963.41 1165.05 947C1195.08 928.068 1190.35 889.984 1204.02 889.561C1219.1 889.094 1240.54 934.881 1230.69 971.324Z" fill="#26264F"/>
<path d="M1190.93 1048.88C1187.86 1040.94 1177.7 1044.92 1175.36 1053.5C1173.02 1062.08 1178.97 1073.24 1187.5 1073.7C1196.03 1074.16 1195.05 1059.55 1190.93 1048.88Z" fill="white"/>
<path d="M985.463 1655.93C985.43 1655.93 985.398 1655.93 985.363 1655.93C984.879 1655.88 984.532 1655.44 984.585 1654.96C990.026 1605.99 979.889 1570.45 970.946 1539.09C968.745 1531.37 966.667 1524.08 964.856 1516.78C954.941 1476.77 950.6 1461.32 946.004 1444.97C943.013 1434.33 939.921 1423.33 935.131 1404.94C935.007 1404.47 935.289 1403.99 935.761 1403.87C936.234 1403.73 936.713 1404.03 936.835 1404.5C941.622 1422.87 944.713 1433.86 947.701 1444.5C952.301 1460.86 956.645 1476.32 966.567 1516.35C968.37 1523.63 970.444 1530.9 972.641 1538.6C981.628 1570.12 991.815 1605.84 986.336 1655.15C986.287 1655.6 985.905 1655.93 985.463 1655.93Z" fill="#9B305E"/>
<path d="M1190.84 1033.45L1198.16 1051.03C1198.16 1051.03 1203.25 1068 1215.16 1064.22C1223.35 1061.62 1225.49 1054.98 1225.57 1051.28C1227.41 1056.36 1229.23 1064.16 1229.23 1074.18C1229.23 1083.92 1229.23 1094.34 1221.61 1102.32C1221.17 1102.78 1212.87 1111.22 1201.68 1110.82C1201.68 1110.82 1197.28 1110.66 1180.58 1102.91C1180.58 1102.91 1203.44 1094.11 1204.61 1090.89C1207.8 1082.12 1196.64 1073.95 1192.3 1053.08C1190.63 1045.04 1190.59 1038.13 1190.84 1033.45Z" fill="#26264F"/>
<path d="M1698.31 1378.97C1714.92 1390.59 1723.83 1406.38 1728.45 1416.46C1716.23 1445.13 1688.53 1498.36 1631.2 1537.59C1537.18 1601.91 1399.34 1604.08 1303.32 1530.72C1188.61 1443.08 1169.44 1275.03 1217.62 1203.06C1223.17 1194.77 1241.41 1167.53 1269.72 1164.41C1287.59 1162.43 1311.93 1169.8 1350.37 1214.82C1430.48 1308.61 1402.19 1367.17 1449.51 1394.62C1520.48 1435.76 1625.94 1328.33 1698.31 1378.97Z" fill="url(#paint34_linear_10_10)"/>
<path d="M1375.38 1569.97C1375.32 1569.97 1375.26 1569.97 1375.2 1569.95C1374.07 1569.71 1261.75 1543.9 1211.24 1404.57C1211.08 1404.11 1211.32 1403.6 1211.77 1403.44C1212.22 1403.27 1212.74 1403.51 1212.9 1403.97C1239.11 1476.28 1281.94 1517.09 1313.25 1538.59C1347.18 1561.89 1375.29 1568.17 1375.57 1568.23C1376.04 1568.34 1376.35 1568.8 1376.24 1569.28C1376.15 1569.69 1375.79 1569.97 1375.38 1569.97Z" fill="#9B305E"/>
<defs>
<linearGradient id="paint0_linear_10_10" x1="2039.25" y1="68.9438" x2="1818.43" y2="1261.4" gradientUnits="userSpaceOnUse">
<stop stop-color="#FFC444"/>
<stop offset="0.9964" stop-color="#F36F56"/>
</linearGradient>
<linearGradient id="paint1_linear_10_10" x1="2507.08" y1="18.1169" x2="1523.92" y2="1591.94" gradientUnits="userSpaceOnUse">
<stop stop-color="#AA80F9"/>
<stop offset="0.9964" stop-color="#6165D7"/>
</linearGradient>
<linearGradient id="paint2_linear_10_10" x1="2382.59" y1="537.932" x2="1893.91" y2="1550.79" gradientUnits="userSpaceOnUse">
<stop stop-color="#FF9085"/>
<stop offset="1" stop-color="#FB6FBB"/>
</linearGradient>
<linearGradient id="paint3_linear_10_10" x1="120.018" y1="1436.01" x2="1928.96" y2="1436.01" gradientUnits="userSpaceOnUse">
<stop stop-color="#893976"/>
<stop offset="1" stop-color="#311944"/>
</linearGradient>
<linearGradient id="paint4_linear_10_10" x1="1595.13" y1="1897.92" x2="408.114" y2="926.725" gradientUnits="userSpaceOnUse">
<stop offset="0.494" stop-color="#EBEFF2"/>
<stop offset="1" stop-color="white"/>
</linearGradient>
<linearGradient id="paint5_linear_10_10" x1="1513.35" y1="493.491" x2="258.778" y2="2819.37" gradientUnits="userSpaceOnUse">
<stop stop-color="#FFC444"/>
<stop offset="0.9964" stop-color="#F36F56"/>
</linearGradient>
<linearGradient id="paint6_linear_10_10" x1="2227.86" y1="2538.74" x2="2298.55" y2="2535.08" gradientUnits="userSpaceOnUse">
<stop stop-color="#AA80F9"/>
<stop offset="0.9964" stop-color="#6165D7"/>
</linearGradient>
<linearGradient id="paint7_linear_10_10" x1="2363.9" y1="2552.32" x2="2434.6" y2="2548.67" gradientUnits="userSpaceOnUse">
<stop stop-color="#AA80F9"/>
<stop offset="0.9964" stop-color="#6165D7"/>
</linearGradient>
<linearGradient id="paint8_linear_10_10" x1="2085.98" y1="2036.35" x2="2515.78" y2="2014.15" gradientUnits="userSpaceOnUse">
<stop stop-color="#444B8C"/>
<stop offset="0.9964" stop-color="#26264F"/>
</linearGradient>
<linearGradient id="paint9_linear_10_10" x1="2067.87" y1="2002.01" x2="2482.58" y2="2030.7" gradientUnits="userSpaceOnUse">
<stop stop-color="#444B8C"/>
<stop offset="0.9964" stop-color="#26264F"/>
</linearGradient>
<linearGradient id="paint10_linear_10_10" x1="2942.12" y1="1277.34" x2="2134.07" y2="851.506" gradientUnits="userSpaceOnUse">
<stop stop-color="#311944"/>
<stop offset="1" stop-color="#6B3976"/>
</linearGradient>
<linearGradient id="paint11_linear_10_10" x1="2932.9" y1="1294.84" x2="2124.85" y2="869.008" gradientUnits="userSpaceOnUse">
<stop stop-color="#311944"/>
<stop offset="1" stop-color="#6B3976"/>
</linearGradient>
<linearGradient id="paint12_linear_10_10" x1="1708.67" y1="1374.93" x2="1836.89" y2="1379.23" gradientUnits="userSpaceOnUse">
<stop stop-color="#FFC444"/>
<stop offset="0.9964" stop-color="#F36F56"/>
</linearGradient>
<linearGradient id="paint13_linear_10_10" x1="1756.05" y1="1107.86" x2="2073.84" y2="1255.38" gradientUnits="userSpaceOnUse">
<stop stop-color="#AA80F9"/>
<stop offset="0.9964" stop-color="#6165D7"/>
</linearGradient>
<linearGradient id="paint14_linear_10_10" x1="2176.38" y1="1283.09" x2="2806.85" y2="1826.45" gradientUnits="userSpaceOnUse">
<stop stop-color="#AA80F9"/>
<stop offset="0.9964" stop-color="#6165D7"/>
</linearGradient>
<linearGradient id="paint15_linear_10_10" x1="2221.45" y1="1240.29" x2="2887.82" y2="1662.54" gradientUnits="userSpaceOnUse">
<stop stop-color="#AA80F9"/>
<stop offset="0.9964" stop-color="#6165D7"/>
</linearGradient>
<linearGradient id="paint16_linear_10_10" x1="2282.61" y1="1172.12" x2="2240.01" y2="831.215" gradientUnits="userSpaceOnUse">
<stop stop-color="#FFC444"/>
<stop offset="0.9964" stop-color="#F36F56"/>
</linearGradient>
<linearGradient id="paint17_linear_10_10" x1="2279.61" y1="1124.33" x2="2290.17" y2="843.165" gradientUnits="userSpaceOnUse">
<stop stop-color="#FFC444"/>
<stop offset="0.9964" stop-color="#F36F56"/>
</linearGradient>
<linearGradient id="paint18_linear_10_10" x1="2231.67" y1="878.435" x2="2234.25" y2="1170.55" gradientUnits="userSpaceOnUse">
<stop stop-color="#FFC444"/>
<stop offset="0.9964" stop-color="#F36F56"/>
</linearGradient>
<linearGradient id="paint19_linear_10_10" x1="2959.91" y1="1243.59" x2="2151.86" y2="817.764" gradientUnits="userSpaceOnUse">
<stop stop-color="#311944"/>
<stop offset="1" stop-color="#6B3976"/>
</linearGradient>
<linearGradient id="paint20_linear_10_10" x1="2064.46" y1="1364.12" x2="2819.17" y2="1364.12" gradientUnits="userSpaceOnUse">
<stop stop-color="#FF9085"/>
<stop offset="1" stop-color="#FB6FBB"/>
</linearGradient>
<linearGradient id="paint21_linear_10_10" x1="2439.08" y1="1599.42" x2="2550.83" y2="1514" gradientUnits="userSpaceOnUse">
<stop stop-color="#FFC444"/>
<stop offset="0.9964" stop-color="#F36F56"/>
</linearGradient>
<linearGradient id="paint22_linear_10_10" x1="2401.81" y1="1197.71" x2="2717.17" y2="1389.81" gradientUnits="userSpaceOnUse">
<stop stop-color="#AA80F9"/>
<stop offset="0.9964" stop-color="#6165D7"/>
</linearGradient>
<linearGradient id="paint23_linear_10_10" x1="2862.98" y1="1219.42" x2="2153.4" y2="845.475" gradientUnits="userSpaceOnUse">
<stop stop-color="#311944"/>
<stop offset="1" stop-color="#6B3976"/>
</linearGradient>
<linearGradient id="paint24_linear_10_10" x1="1771.44" y1="1340.35" x2="1663.74" y2="1475.85" gradientUnits="userSpaceOnUse">
<stop stop-color="#FFC444"/>
<stop offset="0.9964" stop-color="#F36F56"/>
</linearGradient>
<linearGradient id="paint25_linear_10_10" x1="796.758" y1="1862.02" x2="1139.91" y2="1189.67" gradientUnits="userSpaceOnUse">
<stop stop-color="#311944"/>
<stop offset="1" stop-color="#893976"/>
</linearGradient>
<linearGradient id="paint26_linear_10_10" x1="929.752" y1="2738.42" x2="866.657" y2="2780.35" gradientUnits="userSpaceOnUse">
<stop stop-color="#444B8C"/>
<stop offset="0.9964" stop-color="#26264F"/>
</linearGradient>
<linearGradient id="paint27_linear_10_10" x1="868.702" y1="2780.74" x2="882.506" y2="2683.11" gradientUnits="userSpaceOnUse">
<stop stop-color="#FFC444"/>
<stop offset="0.9964" stop-color="#F36F56"/>
</linearGradient>
<linearGradient id="paint28_linear_10_10" x1="925.013" y1="2731.29" x2="861.918" y2="2773.22" gradientUnits="userSpaceOnUse">
<stop stop-color="#444B8C"/>
<stop offset="0.9964" stop-color="#26264F"/>
</linearGradient>
<linearGradient id="paint29_linear_10_10" x1="1330.37" y1="2769.72" x2="1273.77" y2="2820.07" gradientUnits="userSpaceOnUse">
<stop stop-color="#444B8C"/>
<stop offset="0.9964" stop-color="#26264F"/>
</linearGradient>
<linearGradient id="paint30_linear_10_10" x1="1275.85" y1="2820.17" x2="1275.85" y2="2721.56" gradientUnits="userSpaceOnUse">
<stop stop-color="#FFC444"/>
<stop offset="0.9964" stop-color="#F36F56"/>
</linearGradient>
<linearGradient id="paint31_linear_10_10" x1="1280.5" y1="2865.39" x2="911.4" y2="1375.17" gradientUnits="userSpaceOnUse">
<stop stop-color="#444B8C"/>
<stop offset="0.9964" stop-color="#26264F"/>
</linearGradient>
<linearGradient id="paint32_linear_10_10" x1="885.58" y1="2066.07" x2="1086.45" y2="1608.53" gradientUnits="userSpaceOnUse">
<stop stop-color="#311944"/>
<stop offset="1" stop-color="#893976"/>
</linearGradient>
<linearGradient id="paint33_linear_10_10" x1="1324.68" y1="2763.32" x2="1268.08" y2="2813.67" gradientUnits="userSpaceOnUse">
<stop stop-color="#444B8C"/>
<stop offset="0.9964" stop-color="#26264F"/>
</linearGradient>
<linearGradient id="paint34_linear_10_10" x1="1282.75" y1="1717.96" x2="1447.35" y2="1363.65" gradientUnits="userSpaceOnUse">
<stop stop-color="#311944"/>
<stop offset="1" stop-color="#893976"/>
</linearGradient>
</defs>
</svg>
