<svg width="2752" height="2800" viewBox="0 0 2752 2800" fill="none" xmlns="http://www.w3.org/2000/svg">
<path d="M2710.92 1084.2C2680.62 710.624 2665.47 523.835 2594.95 402.978C2393.04 56.945 1806 -25.3461 1435.24 6.20494C938.883 48.4429 371.048 333.782 121.101 884.706C-105.92 1385.1 -1.24112 1951.5 340.829 2322.02C967.895 3001.24 2261.4 2879.97 2577.37 2434.29C2703.48 2256.42 2712.57 1972.32 2725.92 1554.99C2732.35 1354.1 2719.82 1194.01 2710.92 1084.2Z" fill="#F4F7FA"/>
<path d="M2473.06 228.563C2440.97 202.012 2392.29 187.55 2351.14 184.635C2059.45 163.969 2016.89 773.676 2061.59 909.936C2106.3 1046.2 2077.33 1090.94 1847.6 1162.23C1617.88 1233.51 1728.08 1370.78 1756.09 1451.05C1784.09 1531.32 1839.53 1599.13 1672.06 1678.89C1504.59 1758.65 1562.79 1808.06 1562.79 1808.06C1562.79 1808.06 1871.64 2123.97 1854.58 2022.83C1837.52 1921.69 1868.42 1768.96 2145.32 1757.36C2264.59 1752.37 2447.23 1695.47 2487.68 1567.76C2497.1 1538.03 2503.65 1492.6 2496.48 1461.83C2486.55 1419.13 2458.52 1385.48 2442.96 1345.3C2406.7 1251.65 2497.65 1183.06 2549.99 1120.47C2577.31 1087.79 2604.63 1054.28 2625.55 1017.02C2669 939.663 2652.74 856.7 2605.43 785.393C2582.74 751.2 2551.21 714.919 2541.32 674.135C2530.69 630.323 2539.95 570.464 2542.48 525.391C2544.46 490.044 2547.82 454.83 2545.84 419.394C2542.14 353.479 2526.71 272.949 2473.06 228.563Z" fill="url(#paint0_linear_10_450)"/>
<mask id="mask0_10_450" style="mask-type:luminance" maskUnits="userSpaceOnUse" x="1553" y="184" width="1098" height="1859">
<path d="M2473.06 228.563C2440.97 202.012 2392.29 187.55 2351.14 184.635C2059.45 163.969 2016.89 773.676 2061.59 909.936C2106.3 1046.2 2077.33 1090.94 1847.6 1162.23C1617.88 1233.51 1728.08 1370.78 1756.09 1451.05C1784.09 1531.32 1839.53 1599.13 1672.06 1678.89C1504.59 1758.65 1562.79 1808.06 1562.79 1808.06C1562.79 1808.06 1871.64 2123.97 1854.58 2022.83C1837.52 1921.69 1868.42 1768.96 2145.32 1757.36C2264.59 1752.37 2447.23 1695.47 2487.68 1567.76C2497.1 1538.03 2503.65 1492.6 2496.48 1461.83C2486.55 1419.13 2458.52 1385.48 2442.96 1345.3C2406.7 1251.65 2497.65 1183.06 2549.99 1120.47C2577.31 1087.79 2604.63 1054.28 2625.55 1017.02C2669 939.663 2652.74 856.7 2605.43 785.393C2582.74 751.2 2551.21 714.919 2541.32 674.135C2530.69 630.323 2539.95 570.464 2542.48 525.391C2544.46 490.044 2547.82 454.83 2545.84 419.394C2542.14 353.479 2526.71 272.949 2473.06 228.563Z" fill="white"/>
</mask>
<g mask="url(#mask0_10_450)">
<g opacity="0.8">
<path d="M1538.51 1985.37C1536.51 1986.09 1534.24 1985.24 1533.23 1983.3C1532.13 1981.19 1532.94 1978.59 1535.05 1977.48C1536.35 1976.81 1666.37 1908.41 1811.41 1795.78C1945.06 1691.99 2119.17 1528.33 2189.66 1338.09C2248.54 1179.19 2302.23 916.519 2336.98 617.419C2368.14 349.212 2373.06 150.851 2359.82 114.026C2359.01 111.784 2360.17 109.314 2362.41 108.508C2364.66 107.702 2367.13 108.865 2367.93 111.107C2383.42 154.182 2373.59 377.019 2345.55 618.414C2310.73 918.17 2256.86 1181.57 2197.75 1341.08C2126.54 1533.28 1951.16 1698.19 1816.58 1802.69C1670.95 1915.77 1540.35 1984.45 1539.05 1985.13C1538.87 1985.22 1538.69 1985.3 1538.51 1985.37Z" fill="white"/>
<path d="M2336.5 669.411C2334.27 670.213 2332 669.591 2331.18 667.363C2330.1 664.413 2221.37 371.861 2081.14 305.809C2078.99 304.795 2078.11 302.355 2079.13 300.201C2080.14 298.045 2082.73 297.187 2084.89 298.203C2228.32 365.763 2334.8 652.178 2339.27 664.359C2340.09 666.595 2338.77 668.596 2336.53 669.402C2336.52 669.405 2336.51 669.408 2336.5 669.411Z" fill="white"/>
<path d="M2283.48 1008.68C2281.81 1009.28 2279.88 1008.81 2278.69 1007.36C2277.18 1005.52 2277.44 1002.8 2279.28 1001.29C2280.07 1000.63 2360.13 934.958 2458.92 879.847C2592.39 805.386 2694.68 784.6 2762.94 818.068C2765.08 819.116 2765.96 821.701 2764.92 823.84C2763.86 825.979 2761.28 826.862 2759.14 825.814C2602.09 748.818 2287.92 1005.35 2284.76 1007.95C2284.37 1008.27 2283.93 1008.52 2283.48 1008.68Z" fill="white"/>
<path d="M1934.92 1702.15C1934.49 1702.31 1934.02 1702.4 1933.53 1702.4C1931.15 1702.44 1929.19 1700.54 1929.15 1698.16C1929.13 1696.9 1926.91 1571.38 1900.64 1439.13C1876.55 1317.87 1826.81 1165.98 1726.65 1130.98C1724.4 1130.19 1723.22 1127.73 1724 1125.48C1724.79 1123.23 1727.25 1122.05 1729.5 1122.83C1813.02 1152.02 1873.45 1257.91 1909.12 1437.56C1935.53 1570.57 1937.76 1696.77 1937.78 1698.03C1937.81 1699.92 1936.61 1701.54 1934.92 1702.15Z" fill="white"/>
<path d="M2113.15 1499.36C2111.4 1499.99 2109.38 1499.44 2108.22 1497.87C2106.8 1495.95 2107.21 1493.25 2109.12 1491.84C2123.01 1481.57 2450.65 1240.69 2578.42 1263.7C2580.77 1264.12 2582.33 1266.36 2581.9 1268.71C2581.48 1271.05 2579.24 1272.61 2576.9 1272.19C2452.74 1249.84 2117.62 1496.28 2114.25 1498.77C2113.91 1499.03 2113.53 1499.23 2113.15 1499.36Z" fill="white"/>
</g>
</g>
<path d="M2729.07 1126.59C2707.86 1090.75 2666.94 1060.67 2629.21 1044C2361.71 925.851 2115.35 1485.19 2111.31 1628.54C2107.27 1771.89 2064.87 1804.19 1824.58 1793.54C1584.28 1782.89 1641.54 1949.35 1640.73 2034.36C1639.92 2119.37 1669.15 2201.94 1484.57 2220.32C1299.99 2238.71 1338.03 2304.91 1338.03 2304.91C1338.03 2304.91 1521.76 2706.69 1539.93 2605.74C1558.1 2504.79 1638.86 2371.53 1903.36 2454.31C2017.28 2489.97 2208.4 2498.23 2289.67 2391.74C2308.6 2366.94 2330.13 2326.42 2333.8 2295.03C2338.9 2251.49 2323.91 2210.35 2322.87 2167.27C2320.43 2066.87 2429.22 2033.11 2499.66 1991.92C2536.43 1970.41 2573.47 1948.12 2605.77 1920.14C2672.83 1862.04 2685.6 1778.47 2665.21 1695.36C2655.43 1655.51 2638.04 1610.7 2642.53 1568.98C2647.35 1524.15 2676.32 1470.96 2693.95 1429.4C2707.78 1396.81 2722.86 1364.81 2732.98 1330.79C2751.81 1267.51 2764.54 1186.51 2729.07 1126.59Z" fill="url(#paint1_linear_10_450)"/>
<mask id="mask1_10_450" style="mask-type:luminance" maskUnits="userSpaceOnUse" x="1334" y="1027" width="1418" height="1596">
<path d="M2729.07 1126.59C2707.86 1090.75 2666.94 1060.67 2629.21 1044C2361.71 925.851 2115.35 1485.19 2111.31 1628.54C2107.27 1771.89 2064.87 1804.19 1824.58 1793.54C1584.28 1782.89 1641.54 1949.35 1640.73 2034.36C1639.92 2119.37 1669.15 2201.94 1484.57 2220.32C1299.99 2238.71 1338.03 2304.91 1338.03 2304.91C1338.03 2304.91 1521.76 2706.69 1539.93 2605.74C1558.1 2504.79 1638.86 2371.53 1903.36 2454.31C2017.28 2489.97 2208.4 2498.23 2289.67 2391.74C2308.6 2366.94 2330.13 2326.42 2333.8 2295.03C2338.9 2251.49 2323.91 2210.35 2322.87 2167.27C2320.43 2066.87 2429.22 2033.11 2499.66 1991.92C2536.43 1970.41 2573.47 1948.12 2605.77 1920.14C2672.83 1862.04 2685.6 1778.47 2665.21 1695.36C2655.43 1655.51 2638.04 1610.7 2642.53 1568.98C2647.35 1524.15 2676.32 1470.96 2693.95 1429.4C2707.78 1396.81 2722.86 1364.81 2732.98 1330.79C2751.81 1267.51 2764.54 1186.51 2729.07 1126.59Z" fill="white"/>
</mask>
<g mask="url(#mask1_10_450)">
<g opacity="0.8">
<path d="M1255.18 2463.53C1253.06 2463.53 1251.21 2461.97 1250.92 2459.81C1250.59 2457.45 1252.24 2455.27 1254.6 2454.95C1256.05 2454.75 1401.54 2434.39 1576.15 2377.47C1737.03 2325.03 1956.24 2229.94 2086.95 2074.77C2196.12 1945.17 2335.53 1716.16 2469.44 1446.46C2589.51 1204.62 2661.26 1019.62 2661.26 980.49C2661.26 978.107 2663.19 976.177 2665.57 976.177C2667.96 976.177 2669.89 978.108 2669.89 980.49C2669.89 1026.27 2585.23 1232.63 2477.16 1450.3C2342.97 1720.59 2203.14 1950.22 2093.55 2080.33C1961.5 2237.09 1740.67 2332.93 1578.67 2385.72C1403.36 2442.85 1257.23 2463.29 1255.78 2463.49C1255.58 2463.52 1255.38 2463.53 1255.18 2463.53Z" fill="white"/>
<path d="M2451.4 1496.11C2449.03 1496.11 2447.1 1494.31 2447.08 1491.94C2447.06 1488.8 2443.74 1176.49 2334.13 1066.89C2332.45 1065.2 2332.45 1062.5 2334.13 1060.82C2335.82 1059.13 2338.55 1059.15 2340.23 1060.83C2452.34 1172.94 2455.62 1478.9 2455.71 1491.88C2455.72 1494.26 2453.81 1496.11 2451.42 1496.11C2451.41 1496.11 2451.4 1496.11 2451.4 1496.11Z" fill="white"/>
<path d="M2286.7 1796.54C2284.93 1796.54 2283.27 1795.44 2282.64 1793.68C2281.83 1791.44 2283 1788.97 2285.24 1788.16C2286.22 1787.82 2383.78 1753.1 2495.38 1734.67C2646.17 1709.76 2749.46 1724.82 2802.37 1779.41C2804.03 1781.12 2803.99 1783.85 2802.28 1785.51C2800.57 1787.16 2797.84 1787.12 2796.18 1785.41C2674.44 1659.81 2292 1794.91 2288.15 1796.28C2287.67 1796.46 2287.18 1796.54 2286.7 1796.54Z" fill="white"/>
<path d="M1724.05 2331.16C1723.59 2331.16 1723.12 2331.08 1722.65 2330.93C1720.4 2330.15 1719.2 2327.7 1719.97 2325.45C1720.38 2324.26 1760.76 2205.39 1780.79 2072.05C1799.15 1949.79 1803.74 1790.03 1721.33 1723.21C1719.48 1721.7 1719.2 1718.99 1720.7 1717.14C1722.2 1715.29 1724.92 1715 1726.77 1716.51C1795.48 1772.23 1816.52 1892.32 1789.3 2073.45C1769.15 2207.54 1728.54 2327.05 1728.13 2328.24C1727.52 2330.03 1725.84 2331.16 1724.05 2331.16Z" fill="white"/>
<path d="M1960.38 2200.64C1958.52 2200.64 1956.81 2199.43 1956.25 2197.57C1955.57 2195.29 1956.86 2192.88 1959.14 2192.2C1975.68 2187.23 2365.5 2071.43 2477.95 2136.31C2480.02 2137.51 2480.72 2140.14 2479.53 2142.21C2478.34 2144.27 2475.7 2144.98 2473.64 2143.79C2364.38 2080.75 1965.63 2199.25 1961.62 2200.46C1961.21 2200.58 1960.79 2200.64 1960.38 2200.64Z" fill="white"/>
</g>
</g>
<path d="M1832.39 118.956L1829.31 141.015C1819.08 141.482 1809.02 142.801 1799.23 145L1790.89 124.421C1788.62 118.806 1782.2 116.143 1776.55 118.47L1741.18 133.041C1735.52 135.374 1732.76 141.826 1735.02 147.455L1743.4 168.295C1734.84 173.752 1726.73 179.931 1719.2 186.779L1701.41 172.995C1696.62 169.278 1689.66 170.198 1685.87 175.05L1662.1 205.45C1658.3 210.32 1659.1 217.296 1663.9 221.029L1681.74 234.894C1676.99 243.813 1673 253.237 1669.77 263.06L1647.14 260.092C1641.07 259.295 1635.41 263.607 1634.5 269.725L1628.81 308.07C1627.9 314.214 1632.1 319.847 1638.2 320.646L1660.89 323.623C1661.16 333.974 1662.29 344.158 1664.3 354.067L1643.01 362.947C1637.26 365.341 1634.44 371.946 1636.71 377.701L1650.9 413.756C1653.17 419.533 1659.68 422.265 1665.43 419.855L1686.74 410.933C1692.1 419.652 1698.21 427.872 1705 435.512L1690.8 453.95C1686.96 458.942 1687.78 466.083 1692.64 469.897L1723.08 493.778C1727.96 497.602 1735.02 496.639 1738.86 491.629L1752.89 473.313C1761.85 478.087 1771.33 482.056 1781.22 485.224L1778.03 508.085C1777.16 514.343 1781.43 520.073 1787.57 520.879L1826.01 525.92C1832.15 526.726 1837.83 522.301 1838.69 516.041L1841.79 493.353C1852.24 492.907 1862.51 491.556 1872.5 489.303L1880.93 510.264C1883.27 516.084 1889.82 518.833 1895.56 516.401L1931.4 501.214C1937.12 498.788 1939.86 492.114 1937.51 486.309L1929.07 465.498C1937.82 459.853 1946.06 453.437 1953.71 446.345L1971.23 459.964C1976.12 463.77 1983.14 462.813 1986.9 457.828L2010.37 426.713C2014.12 421.746 2013.19 414.65 2008.3 410.861L1990.94 397.406C1995.68 388.231 1999.6 378.542 2002.72 368.46L2024.43 371.307C2030.52 372.106 2036.1 367.757 2036.89 361.596L2041.82 323.151C2042.6 317.016 2038.31 311.4 2032.24 310.603L2010.6 307.764C2010.15 297.286 2008.83 287 2006.61 277.018L2026.68 268.614C2032.33 266.251 2035 259.731 2032.65 254.053L2017.99 218.613C2015.64 212.956 2009.18 210.276 2003.55 212.625L1983.36 221.041C1977.87 212.407 1971.64 204.273 1964.74 196.745L1978.07 179.334C1981.78 174.489 1980.88 167.556 1976.05 163.847L1945.9 140.681C1941.08 136.981 1934.16 137.895 1930.45 142.723L1917.02 160.156C1908.12 155.538 1898.72 151.694 1888.92 148.651L1891.91 126.759C1892.73 120.735 1888.52 115.214 1882.49 114.423L1844.82 109.482C1838.8 108.696 1833.23 112.935 1832.39 118.956ZM1699.58 297.649C1710.47 221.89 1780 168.777 1854.95 178.607C1929.89 188.437 1982.53 257.575 1972.47 333.442C1962.34 409.769 1892.66 463.927 1816.89 453.989C1741.12 444.05 1688.63 373.867 1699.58 297.649Z" fill="#D8DEE8"/>
<path d="M1254.77 107L1250 141.107C1234.19 141.829 1218.63 143.868 1203.5 147.269L1190.61 115.451C1187.09 106.77 1177.16 102.652 1168.42 106.251L1113.74 128.78C1104.98 132.387 1100.72 142.364 1104.22 151.067L1117.18 183.289C1103.93 191.726 1091.4 201.281 1079.75 211.869L1052.26 190.557C1044.84 184.81 1034.08 186.232 1028.22 193.735L991.478 240.739C985.592 248.269 986.834 259.054 994.26 264.826L1021.83 286.263C1014.49 300.054 1008.32 314.624 1003.34 329.812L968.349 325.223C958.956 323.991 950.204 330.657 948.801 340.117L940.007 399.404C938.598 408.904 945.092 417.613 954.513 418.848L989.605 423.451C990.021 439.456 991.769 455.201 994.881 470.522L961.952 484.251C953.072 487.953 948.71 498.165 952.211 507.063L974.15 562.81C977.665 571.742 987.73 575.966 996.628 572.24L1029.58 558.445C1037.86 571.926 1047.31 584.635 1057.8 596.448L1035.85 624.956C1029.9 632.675 1031.18 643.715 1038.7 649.613L1085.76 686.537C1093.3 692.449 1104.22 690.96 1110.15 683.214L1131.85 654.895C1145.7 662.276 1160.36 668.414 1175.66 673.311L1170.72 708.657C1169.37 718.333 1175.97 727.192 1185.48 728.439L1244.9 736.233C1254.4 737.479 1263.18 730.637 1264.5 720.958L1269.3 685.879C1285.45 685.189 1301.34 683.101 1316.78 679.617L1329.82 712.026C1333.43 721.025 1343.56 725.275 1352.43 721.515L1407.85 698.033C1416.7 694.283 1420.93 683.963 1417.29 674.988L1404.26 642.811C1417.79 634.082 1430.52 624.163 1442.34 613.198L1469.43 634.255C1477 640.14 1487.85 638.66 1493.66 630.952L1529.96 582.843C1535.75 575.164 1534.31 564.191 1526.76 558.333L1499.92 537.529C1507.23 523.343 1513.3 508.362 1518.13 492.774L1551.69 497.176C1561.11 498.412 1569.74 491.687 1570.96 482.162L1578.57 422.721C1579.79 413.236 1573.16 404.552 1563.76 403.32L1530.3 398.931C1529.61 382.731 1527.57 366.826 1524.14 351.392L1555.17 338.397C1563.9 334.744 1568.03 324.663 1564.4 315.884L1541.73 261.088C1538.11 252.342 1528.12 248.198 1519.4 251.83L1488.19 264.843C1479.69 251.494 1470.07 238.917 1459.39 227.278L1480.01 200.358C1485.75 192.867 1484.35 182.147 1476.89 176.413L1430.26 140.596C1422.82 134.875 1412.12 136.288 1406.37 143.754L1385.62 170.708C1371.85 163.567 1357.32 157.625 1342.16 152.92L1346.79 119.072C1348.06 109.758 1341.55 101.221 1332.23 99.999L1273.99 92.3589C1264.67 91.1359 1256.07 97.6899 1254.77 107ZM1049.42 383.287C1066.25 266.151 1173.76 184.031 1289.64 199.23C1405.52 214.429 1486.91 321.326 1471.35 438.629C1455.69 556.641 1347.96 640.379 1230.8 625.013C1113.65 609.646 1032.48 501.132 1049.42 383.287Z" fill="#D8DEE8"/>
<path d="M1199.04 437.301L944.276 2554.84C940.457 2586.59 962.339 2615.05 992.993 2618.09L2054.11 2734.58C2119.11 2738.63 2154.71 2705.42 2158.72 2671.66L2426.19 420.362C2430.18 386.789 2398.29 356.385 2333.01 356.384L1262.23 378.936C1231.24 379.455 1202.84 405.718 1199.04 437.301Z" fill="url(#paint2_linear_10_450)"/>
<path d="M1151.28 433.656L895.12 2561.78C891.279 2593.69 913.236 2622.3 944.003 2625.37L2044.09 2734.89C2078.58 2738.32 2110.18 2713.37 2114.22 2679.44L2383.19 416.51C2387.2 382.764 2361.87 355.639 2327 356.227L1214.73 374.994C1183.61 375.519 1155.1 401.915 1151.28 433.656Z" fill="url(#paint3_linear_10_450)"/>
<path d="M1172.15 551.042L934.727 2524.24C931.14 2554.05 951.703 2580.73 980.502 2583.53L2015.09 2684.1C2047.15 2687.21 2076.54 2663.92 2080.29 2632.34L2328.86 541.916C2332.6 510.492 2309.08 485.067 2276.7 485.412L1231.49 496.542C1202.39 496.852 1175.72 521.375 1172.15 551.042Z" fill="#D8DEE8"/>
<path d="M1726.96 432.194C1725.6 443.523 1733.73 452.591 1745.13 452.447C1756.54 452.304 1766.9 442.984 1768.25 431.632C1769.61 420.28 1761.45 411.213 1750.04 411.38C1738.64 411.548 1728.31 420.865 1726.96 432.194Z" fill="url(#paint4_linear_10_450)"/>
<path d="M1351.03 1875.58C1562.83 1483.98 1879.23 1366.77 1974.49 963.185C2025.99 745.033 1990.9 536.233 1931.81 362.894L2327 356.226C2361.87 355.638 2387.2 382.763 2383.19 416.509L2114.22 2679.44C2110.18 2713.37 2078.58 2738.32 2044.08 2734.89L1179.31 2648.79C1172.92 2297.91 1256.61 2050.13 1351.03 1875.58Z" fill="white"/>
<path d="M106.856 658.231C106.856 450.154 288.364 281.497 506.183 281.524C717.561 281.549 884.385 441.326 884.385 638.394C884.385 835.463 717.561 1003.75 506.183 1014.56C288.364 1025.7 106.856 866.308 106.856 658.231Z" fill="url(#paint5_linear_10_450)"/>
<path d="M130.337 641.638C130.337 433.561 306.595 264.904 518.112 264.93C723.375 264.955 885.373 424.732 885.373 621.8C885.373 818.869 723.375 987.157 518.112 997.969C306.595 1009.11 130.337 849.714 130.337 641.638Z" fill="url(#paint6_linear_10_450)"/>
<g opacity="0.5">
<path d="M190.681 640.053C190.681 465.236 338.765 323.538 516.472 323.559C688.925 323.581 825.028 457.818 825.028 623.386C825.028 788.955 688.925 930.344 516.472 939.427C338.764 948.787 190.681 814.87 190.681 640.053Z" fill="white"/>
</g>
<path opacity="0.5" d="M504.237 350.425C676.691 350.448 812.794 484.683 812.794 650.251C812.794 689.624 805.02 727.589 790.97 762.771C812.73 720.408 825.028 673.002 825.028 623.388C825.028 457.819 688.925 323.58 516.472 323.557C379.413 323.543 260.053 407.862 212.584 526.623C266.343 422.216 377.759 350.411 504.237 350.425Z" fill="white"/>
<path d="M369.127 597.264V749.842C369.127 793.957 406.241 828.752 451.881 827.561L565.05 824.609C610.142 823.432 646.582 787.095 646.582 743.444V592.471L369.127 597.264ZM473.352 755.003L494.385 691.273C485.377 686.623 479.27 677.464 479.27 666.793C479.27 651.13 492.405 638.185 508.588 637.879C524.751 637.573 537.84 649.994 537.84 665.622C537.84 676.27 531.759 685.661 522.776 690.679L543.73 753.361L473.352 755.003Z" fill="white"/>
<path d="M614.413 579.253C602.407 579.454 592.668 570.16 592.668 558.497C592.668 513.65 555.016 477.647 508.588 478.242C461.994 478.84 423.965 516.049 423.965 561.185C423.965 572.924 414.092 582.608 401.901 582.811C389.699 583.015 379.8 573.648 379.8 561.889C379.8 493.196 437.731 436.66 508.587 435.865C579.062 435.075 636.122 489.778 636.122 557.803C636.123 569.448 626.408 579.052 614.413 579.253Z" fill="white"/>
<path d="M876.524 1449.52C876.524 1449.52 868.827 1420.66 874.279 1413.28C879.731 1405.9 913.082 1376.4 909.875 1386.02C906.668 1395.64 901.858 1402.05 901.858 1402.05C901.858 1402.05 919.816 1410.39 908.272 1422.9C896.727 1435.41 892.873 1438.29 892.235 1449.52C891.596 1460.74 884.22 1464.59 876.524 1449.52Z" fill="url(#paint7_linear_10_450)"/>
<path d="M556.166 2695.29C556.166 2695.29 552.088 2720.25 552.608 2729.13C553.126 2738.02 651.705 2742.56 652.701 2735.9C653.697 2729.25 636.406 2718.67 624.237 2714.93C612.067 2711.2 576.449 2701.23 576.449 2701.23L556.166 2695.29Z" fill="url(#paint8_linear_10_450)"/>
<path d="M580.094 2670.41L576.95 2701.44C576.95 2701.44 565.499 2709.01 555.41 2703.17L550.362 2669.39L580.094 2670.41Z" fill="url(#paint9_linear_10_450)"/>
<path d="M380.284 2735.75C380.284 2735.75 376.205 2760.71 376.724 2769.6C377.243 2778.48 475.823 2783.02 476.818 2776.37C477.814 2769.71 460.523 2759.13 448.354 2755.39C436.185 2751.66 400.567 2741.69 400.567 2741.69L380.284 2735.75Z" fill="url(#paint10_linear_10_450)"/>
<path d="M404.212 2710.87L401.067 2741.91C401.067 2741.91 389.617 2749.47 379.527 2743.63L374.479 2709.85L404.212 2710.87Z" fill="url(#paint11_linear_10_450)"/>
<path d="M562.206 1860.15C573.6 1883.25 584.996 1906.35 596.391 1929.45C605.555 2061.29 610.109 2204.64 607.184 2357.95C605.008 2472.01 598.911 2580.06 590.156 2681.48C574.707 2680.77 559.257 2680.06 543.807 2679.36C521.466 2635.02 495.094 2567.84 492.667 2484.92C490.135 2398.43 516.358 2386.95 514.695 2304.13C512.539 2196.8 467.529 2168.16 443.549 2039.05C434.379 1989.67 428.204 1925.18 435.543 1846.94C477.765 1851.34 519.984 1855.75 562.206 1860.15Z" fill="url(#paint12_linear_10_450)"/>
<path opacity="0.3" d="M435.543 1846.93C458.345 1849.31 481.146 1851.69 503.949 1854.07C544.994 1925.5 556.454 1999.85 549.251 2032.73C539.061 2079.26 512.105 2094.16 513.587 2140.87C515.053 2187.09 542.285 2199.08 559.56 2253.56C571.518 2291.28 568.363 2325.96 561.559 2393.78C547.858 2530.39 514.869 2572.17 542.502 2616.96C550.354 2629.68 564.501 2644.84 592.218 2656.41C591.54 2664.79 590.872 2673.19 590.156 2681.48C574.707 2680.78 559.257 2680.06 543.807 2679.36C521.466 2635.01 495.094 2567.84 492.667 2484.92C490.135 2398.43 516.357 2386.94 514.695 2304.13C512.539 2196.79 467.529 2168.16 443.549 2039.05C434.378 1989.67 428.204 1925.18 435.543 1846.93Z" fill="url(#paint13_linear_10_450)"/>
<path d="M500.903 1901.74C479.514 2018.37 460.621 2143.21 445.879 2275.59C428.081 2435.44 418.582 2586.14 414.847 2726.06C397.89 2726.54 380.933 2727.01 363.975 2727.5C297.155 2595.31 293.072 2505.68 302.707 2447.33C306.42 2424.85 316.503 2380.76 318.805 2314.87C320.409 2268.94 317.479 2233.98 313.818 2191.96C305.794 2099.83 296.055 2079.72 294.656 2009.25C293.341 1943.11 293.07 1909.65 311.949 1890.11C361.689 1838.65 491.087 1897.18 500.903 1901.74Z" fill="url(#paint14_linear_10_450)"/>
<path d="M867.65 1445.07C878.928 1444.28 890.204 1443.5 901.481 1442.71C928.085 1550.21 909.003 1654.5 848.957 1692.85C755.145 1752.78 580.798 1639.88 543.016 1516.96C526.432 1463 530.208 1385.13 563.352 1370.01C572.552 1365.8 586.828 1365.15 617.758 1382.52C710.127 1434.38 712.555 1532.39 759.513 1540.69C780.393 1544.39 814.108 1531.08 867.65 1445.07Z" fill="url(#paint15_linear_10_450)"/>
<path d="M609.368 1953.1C625.615 1926.15 605.209 1900.15 600.563 1849.07C595.299 1791.18 617.598 1781.54 639.652 1685.61C654.318 1621.81 668.397 1560.56 651.592 1488.86C643.539 1454.5 629.879 1396.22 581.646 1368.07C556.755 1353.54 522.77 1354.99 455.817 1358.5C373.021 1362.83 331.624 1364.99 300.75 1381.25C296.231 1383.63 202.306 1434.72 195.841 1517.99C189.26 1602.75 281.565 1614.14 293.875 1727.17C299.402 1777.91 289.55 1855.95 283.162 1906.57C277.028 1955.17 272.806 1967.61 282.397 1982.32C305.513 2017.79 376.283 2007.68 517.825 1987.47C573.348 1979.54 597.245 1973.22 609.368 1953.1Z" fill="url(#paint16_linear_10_450)"/>
<path d="M394.011 1708.99C388.026 1731.02 366.501 1747.47 351.517 1801.06C348.282 1812.63 325.241 1895.01 355.129 1915.29C372.393 1927 387.89 1904.81 429.788 1901.92C502.391 1896.89 536.978 1957.91 584.404 1941.25C592.632 1938.35 603.496 1932.19 614.342 1918.03C616.501 1930.79 616.131 1941.88 609.367 1953.1C597.243 1973.22 573.347 1979.54 517.826 1987.47C376.284 2007.68 305.514 2017.79 282.398 1982.32C272.807 1967.61 277.028 1955.16 283.163 1906.56C289.551 1855.95 299.403 1777.91 293.876 1727.17C281.565 1614.14 189.26 1602.75 195.842 1517.99C197.601 1495.33 205.936 1475.16 217.082 1457.6C334.176 1504.98 412.824 1639.76 394.011 1708.99Z" fill="url(#paint17_linear_10_450)"/>
<path d="M246.115 1875.71L269.542 1890.67C273.749 1885.81 283.487 1876.01 298.693 1872.67C315.824 1868.9 335.49 1874.3 335.947 1879.77C336.314 1884.15 324.339 1888.57 322.488 1889.25C307.541 1894.77 296.45 1890.19 290.407 1896.2C288.27 1898.32 285.606 1902.27 279.481 1905.94C277.873 1906.9 276.187 1907.75 275.299 1908.09C265.323 1911.97 248.209 1894.6 246.737 1893.09L246.115 1875.71Z" fill="url(#paint18_linear_10_450)"/>
<path d="M315.329 1568.45C332.276 1527.86 344.018 1465.71 317.25 1373.42C140.872 1442.92 50.9188 1607.68 86.0418 1738.28C114.995 1845.95 220.334 1898.4 243.832 1909.43C249.299 1896.98 254.768 1884.54 260.235 1872.1C233.004 1841.77 202.318 1796.94 206.658 1745.77C212.674 1674.83 281.018 1650.62 315.329 1568.45Z" fill="url(#paint19_linear_10_450)"/>
<path d="M451.483 1275C451.483 1275 450.09 1305.85 440.512 1328.96C431.857 1349.84 386.333 1362.97 377.106 1367.63C367.877 1372.29 394.394 1385.91 421.023 1388.59C447.651 1391.27 523.697 1385.22 537.406 1375.13C551.114 1365.03 526.39 1365.79 507.383 1358.81C488.377 1351.84 477.387 1314.67 480.742 1297.79C484.096 1280.92 451.483 1275 451.483 1275Z" fill="url(#paint20_linear_10_450)"/>
<path d="M493.6 1263.81C507.417 1250.23 509.346 1248.65 510.851 1243.96C516.89 1225.12 502.282 1199.33 483.122 1192.98C482.125 1192.65 469.276 1188.54 464.371 1194.11C460.205 1198.85 466.334 1205.38 463.42 1214.51C460.691 1223.05 453.286 1223.69 439.563 1234.89C428.258 1244.12 421.232 1249.85 419.611 1257.92C416.269 1274.55 436.402 1298.65 454.225 1298C460.634 1297.76 462.377 1294.49 493.6 1263.81Z" fill="url(#paint21_linear_10_450)"/>
<path d="M455.969 1300.57C455.969 1300.57 470.656 1317.2 493.03 1311.7C513.062 1306.78 507.951 1260.8 493.291 1253.45C488.401 1251.01 479.514 1251.21 472.831 1254.43C468.883 1256.33 467.786 1258.31 461.275 1261.29C455.271 1264.04 453.367 1263.66 451.752 1265.6C449.73 1268.02 448.861 1273.23 455.193 1285.82C450.63 1282.59 445.722 1281.91 442.71 1284.05C442.229 1284.39 441.005 1285.58 440.478 1287.16C438.568 1292.85 444.487 1298.64 455.969 1300.57Z" fill="url(#paint22_linear_10_450)"/>
<path d="M2131.23 678.022L2136.41 705.927H2136.4L2029.97 706.178L1106.37 708.368C1082.61 708.424 1060.76 728.063 1057.5 752.237L837.025 2225.77C833.743 2250.16 871.707 2287.39 895.327 2289.21L1305.08 2320.7V2320.21L1918 2367.23C1918.01 2367.23 1918.02 2367.23 1918.03 2367.23L1919.52 2367.85C1945.69 2369.87 1969.7 2350.88 1973.1 2325.12C1973.1 2325.11 1973.1 2325.23 1973.1 2325.22L2179.58 751.965C2182.93 726.437 2157.55 677.95 2131.23 678.022Z" fill="url(#paint23_linear_10_450)"/>
<path d="M1952.2 2294.45C1948.82 2320.22 1924.82 2339.48 1898.65 2337.47L873.409 2258.75C849.803 2256.93 833.369 2235.69 836.652 2211.3L1037.08 722.103C1040.33 697.934 1062.18 678.291 1085.92 678.226L2116.95 675.391C2143.26 675.319 2161.92 695.947 2158.57 721.469L1952.2 2294.45Z" fill="url(#paint24_linear_10_450)"/>
<path d="M1965.82 1475.48C1964.14 1488.24 1952.22 1497.76 1939.2 1497.28L1036.86 1464.35C1024.95 1463.91 1016.58 1454.11 1018.21 1441.92L1035.95 1310.43C1037.59 1298.25 1048.46 1290.01 1060.38 1290.34L1963.5 1315.42C1976.54 1315.78 1985.78 1324.99 1984.1 1337.74L1965.82 1475.48Z" fill="white"/>
<path d="M1930.87 1742.65C1929.19 1755.44 1917.26 1766.35 1904.25 1765.7L1002.6 1721.16C990.697 1720.57 982.414 1709.18 984.054 1696.98L1001.93 1562.95C1003.57 1550.75 1014.55 1540.3 1026.45 1540.78L1928.65 1577.17C1941.68 1577.7 1950.88 1589.48 1949.2 1602.25L1930.87 1742.65Z" fill="white"/>
<path opacity="0.1" d="M1984.17 1337.21C1982.04 1336.52 1979.73 1336.14 1977.29 1336.07L1074.15 1311.01C1062.23 1310.66 1051.35 1318.93 1049.73 1331.08L1031.97 1462.57C1031.93 1462.92 1031.9 1463.23 1031.86 1463.57C1022.71 1460.99 1016.82 1452.31 1018.2 1441.91L1035.96 1310.42C1037.58 1298.27 1048.46 1290 1060.37 1290.35L1963.52 1315.41C1976.32 1315.79 1985.52 1324.71 1984.17 1337.21Z" fill="url(#paint25_linear_10_450)"/>
<path opacity="0.1" d="M1949.4 1599.3C1947.23 1598.44 1944.89 1597.92 1942.41 1597.82L1040.23 1561.43C1028.32 1560.94 1017.33 1571.41 1015.72 1583.6L997.811 1717.64C997.708 1718.5 997.639 1719.33 997.639 1720.19C988.48 1717.23 982.661 1707.38 984.038 1696.98L1001.94 1562.94C1003.56 1550.75 1014.54 1540.29 1026.46 1540.77L1928.64 1577.16C1940.69 1577.68 1949.43 1587.73 1949.4 1599.3Z" fill="url(#paint26_linear_10_450)"/>
<path d="M1691.08 1959.2C1693.74 1939.03 1679.48 1920.45 1659.21 1919.28L1192.46 1892.48C1173.13 1891.37 1155.28 1907.65 1152.65 1927.29L1133.38 2072.47C1130.75 2092.14 1144.17 2110.96 1163.48 2112.28L1630 2144.2C1650.26 2145.59 1668.92 2128.48 1671.58 2108.28L1691.08 1959.2Z" fill="url(#paint27_linear_10_450)"/>
<path d="M1726.33 981.065C1720.18 1027.48 1696.33 1069.37 1662.44 1100.18C1625.91 1133.4 1577.79 1153.62 1527.75 1152.66C1477.96 1151.7 1436.06 1129.94 1409.15 1095.97C1384.32 1064.66 1372.17 1022.94 1378.26 977.308C1390.93 882.382 1478.14 805.639 1573.86 805.864C1670.47 806.093 1739.11 884.517 1726.33 981.065Z" fill="url(#paint28_linear_10_450)"/>
<path d="M1633.25 928.316C1627.73 969.899 1589.36 1003.21 1547.69 1002.71C1506.19 1002.22 1477.12 968.348 1482.62 927.068C1488.12 885.799 1526.11 852.507 1567.63 852.699C1609.32 852.892 1638.77 886.743 1633.25 928.316Z" fill="white"/>
<path d="M1662.44 1100.18C1625.91 1133.4 1577.79 1153.62 1527.75 1152.66C1477.96 1151.7 1436.06 1129.94 1409.15 1095.97C1439.95 1053.06 1490.74 1024.52 1544.7 1025.23C1598.93 1025.93 1642.65 1055.99 1662.44 1100.18Z" fill="white"/>
<path opacity="0.4" d="M2158.57 721.469L1952.2 2294.45C1948.83 2320.21 1923.29 2339.37 1897.13 2337.36L1281.36 2290.07C1252.11 2260.13 1228.02 2224.18 1210.83 2181.06C1202.39 2159.91 1196.21 2137.09 1192.1 2113.09C1180.67 2046.67 1185.1 1971.18 1201.77 1897.06C1214.59 1840.01 1234.69 1783.69 1260.42 1732.87C1281 1692.24 1305.2 1655.09 1332.23 1623.87C1351.69 1601.4 1372.74 1579.57 1394.94 1558.16C1421.71 1532.32 1450.16 1507.1 1479.51 1482.11C1547.89 1423.84 1621.12 1366.87 1688.93 1306.71C1845.37 1167.93 1972.29 1012.86 1941.75 791.597C1940.78 784.63 1931.24 731.258 1919.06 675.935L2115.42 675.395C2141.72 675.323 2161.92 695.956 2158.57 721.469Z" fill="white"/>
<defs>
<linearGradient id="paint0_linear_10_450" x1="1875.48" y1="2019.62" x2="2605.87" y2="46.9937" gradientUnits="userSpaceOnUse">
<stop offset="0.0036" stop-color="#E38DDD"/>
<stop offset="1" stop-color="#9571F6"/>
</linearGradient>
<linearGradient id="paint1_linear_10_450" x1="1334.79" y1="1824.87" x2="2751.52" y2="1824.87" gradientUnits="userSpaceOnUse">
<stop stop-color="#FF9085"/>
<stop offset="1" stop-color="#FB6FBB"/>
</linearGradient>
<linearGradient id="paint2_linear_10_450" x1="1698.37" y1="1490.89" x2="2116.55" y2="1536.51" gradientUnits="userSpaceOnUse">
<stop stop-color="#444B8C"/>
<stop offset="0.9964" stop-color="#26264F"/>
</linearGradient>
<linearGradient id="paint3_linear_10_450" x1="1329.91" y1="436.782" x2="2363.95" y2="3957.08" gradientUnits="userSpaceOnUse">
<stop stop-color="#444B8C"/>
<stop offset="0.9964" stop-color="#26264F"/>
</linearGradient>
<linearGradient id="paint4_linear_10_450" x1="1717.39" y1="350.075" x2="2932.67" y2="3641.44" gradientUnits="userSpaceOnUse">
<stop stop-color="#FFC444"/>
<stop offset="0.9964" stop-color="#F36F56"/>
</linearGradient>
<linearGradient id="paint5_linear_10_450" x1="-8900.11" y1="9507.89" x2="-8068.86" y2="8724.04" gradientUnits="userSpaceOnUse">
<stop stop-color="#311944"/>
<stop offset="1" stop-color="#893976"/>
</linearGradient>
<linearGradient id="paint6_linear_10_450" x1="255.213" y1="860.729" x2="921.325" y2="256.251" gradientUnits="userSpaceOnUse">
<stop stop-color="#FF9085"/>
<stop offset="1" stop-color="#FB6FBB"/>
</linearGradient>
<linearGradient id="paint7_linear_10_450" x1="930.098" y1="1386.34" x2="798.098" y2="1520.7" gradientUnits="userSpaceOnUse">
<stop stop-color="#FFC444"/>
<stop offset="0.9964" stop-color="#F36F56"/>
</linearGradient>
<linearGradient id="paint8_linear_10_450" x1="602.908" y1="2662.58" x2="604.02" y2="2364.51" gradientUnits="userSpaceOnUse">
<stop stop-color="#AA80F9"/>
<stop offset="0.9964" stop-color="#6165D7"/>
</linearGradient>
<linearGradient id="paint9_linear_10_450" x1="573.379" y1="2758.36" x2="559.186" y2="2604.34" gradientUnits="userSpaceOnUse">
<stop stop-color="#FFC444"/>
<stop offset="0.9964" stop-color="#F36F56"/>
</linearGradient>
<linearGradient id="paint10_linear_10_450" x1="427.178" y1="2661.92" x2="428.291" y2="2363.85" gradientUnits="userSpaceOnUse">
<stop stop-color="#AA80F9"/>
<stop offset="0.9964" stop-color="#6165D7"/>
</linearGradient>
<linearGradient id="paint11_linear_10_450" x1="395.28" y1="2774.77" x2="381.087" y2="2620.75" gradientUnits="userSpaceOnUse">
<stop stop-color="#FFC444"/>
<stop offset="0.9964" stop-color="#F36F56"/>
</linearGradient>
<linearGradient id="paint12_linear_10_450" x1="567.992" y1="1982.29" x2="458.739" y2="2540.85" gradientUnits="userSpaceOnUse">
<stop stop-color="#311944"/>
<stop offset="1" stop-color="#893976"/>
</linearGradient>
<linearGradient id="paint13_linear_10_450" x1="622.515" y1="2255.42" x2="458.374" y2="2268.57" gradientUnits="userSpaceOnUse">
<stop stop-color="#311944"/>
<stop offset="1" stop-color="#893976"/>
</linearGradient>
<linearGradient id="paint14_linear_10_450" x1="531.728" y1="2286.29" x2="282.546" y2="2306.27" gradientUnits="userSpaceOnUse">
<stop stop-color="#311944"/>
<stop offset="1" stop-color="#893976"/>
</linearGradient>
<linearGradient id="paint15_linear_10_450" x1="728.548" y1="1463.85" x2="544.192" y2="2647.82" gradientUnits="userSpaceOnUse">
<stop stop-color="#AA80F9"/>
<stop offset="0.9964" stop-color="#6165D7"/>
</linearGradient>
<linearGradient id="paint16_linear_10_450" x1="336.455" y1="2763.43" x2="247.289" y2="3958.35" gradientUnits="userSpaceOnUse">
<stop stop-color="#AA80F9"/>
<stop offset="0.9964" stop-color="#6165D7"/>
</linearGradient>
<linearGradient id="paint17_linear_10_450" x1="33.3067" y1="2356.01" x2="525.427" y2="1513.05" gradientUnits="userSpaceOnUse">
<stop stop-color="#AA80F9"/>
<stop offset="0.9964" stop-color="#6165D7"/>
</linearGradient>
<linearGradient id="paint18_linear_10_450" x1="207.756" y1="1773.17" x2="311.547" y2="1913.38" gradientUnits="userSpaceOnUse">
<stop stop-color="#FFC444"/>
<stop offset="0.9964" stop-color="#F36F56"/>
</linearGradient>
<linearGradient id="paint19_linear_10_450" x1="118.603" y1="2747.18" x2="29.437" y2="3942.1" gradientUnits="userSpaceOnUse">
<stop stop-color="#AA80F9"/>
<stop offset="0.9964" stop-color="#6165D7"/>
</linearGradient>
<linearGradient id="paint20_linear_10_450" x1="502.505" y1="1423.78" x2="402.586" y2="1299.46" gradientUnits="userSpaceOnUse">
<stop stop-color="#FFC444"/>
<stop offset="0.9964" stop-color="#F36F56"/>
</linearGradient>
<linearGradient id="paint21_linear_10_450" x1="426.528" y1="1378.12" x2="479.487" y2="1203.9" gradientUnits="userSpaceOnUse">
<stop stop-color="#444B8C"/>
<stop offset="0.9964" stop-color="#3E4177"/>
</linearGradient>
<linearGradient id="paint22_linear_10_450" x1="561.586" y1="1317.33" x2="412.625" y2="1251.02" gradientUnits="userSpaceOnUse">
<stop stop-color="#FFC444"/>
<stop offset="0.9964" stop-color="#F36F56"/>
</linearGradient>
<linearGradient id="paint23_linear_10_450" x1="836.825" y1="1523.01" x2="2179.88" y2="1523.01" gradientUnits="userSpaceOnUse">
<stop stop-color="#311944"/>
<stop offset="1" stop-color="#893976"/>
</linearGradient>
<linearGradient id="paint24_linear_10_450" x1="1653.36" y1="4164.55" x2="1493.21" y2="1390.63" gradientUnits="userSpaceOnUse">
<stop offset="0.0036" stop-color="#F36F56"/>
<stop offset="1" stop-color="#FFC444"/>
</linearGradient>
<linearGradient id="paint25_linear_10_450" x1="1018" y1="1376.95" x2="1984.31" y2="1376.95" gradientUnits="userSpaceOnUse">
<stop offset="0.0036" stop-color="#F36F56"/>
<stop offset="1" stop-color="#FFC444"/>
</linearGradient>
<linearGradient id="paint26_linear_10_450" x1="983.837" y1="1630.47" x2="1949.4" y2="1630.47" gradientUnits="userSpaceOnUse">
<stop offset="0.0036" stop-color="#F36F56"/>
<stop offset="1" stop-color="#FFC444"/>
</linearGradient>
<linearGradient id="paint27_linear_10_450" x1="1458.43" y1="1724.07" x2="1242.59" y2="3092.86" gradientUnits="userSpaceOnUse">
<stop offset="0.0036" stop-color="#F36F56"/>
<stop offset="1" stop-color="#FFC444"/>
</linearGradient>
<linearGradient id="paint28_linear_10_450" x1="1529.44" y1="298.922" x2="1575.53" y2="1671.6" gradientUnits="userSpaceOnUse">
<stop offset="0.0036" stop-color="#F36F56"/>
<stop offset="1" stop-color="#FFC444"/>
</linearGradient>
</defs>
</svg>
